<svg width="1920" height="1079" viewBox="0 0 1920 1079" fill="none" xmlns="http://www.w3.org/2000/svg">
<rect width="1920" height="1079" fill="#212121"/>
<rect x="80" y="751" width="425" height="115" fill="#7B8B8A"/>
<rect x="80" y="886" width="425" height="28" fill="#7B8B8A"/>
<rect x="80" y="924" width="425" height="28" fill="#7B8B8A"/>
<rect x="80" y="962" width="277" height="28" fill="#7B8B8A"/>
<path d="M528.036 728V731H525V728H528.036ZM540.179 728V731H534.107V728H540.179ZM552.321 728V731H546.25V728H552.321ZM564.464 728V731H558.393V728H564.464ZM576.607 728V731H570.536V728H576.607ZM588.75 728V731H582.679V728H588.75ZM600.893 728V731H594.821V728H600.893ZM613.036 728V731H606.964V728H613.036ZM625.179 728V731H619.107V728H625.179ZM637.321 728V731H631.25V728H637.321ZM649.464 728V731H643.393V728H649.464ZM661.607 728V731H655.536V728H661.607ZM673.75 728V731H667.679V728H673.75ZM685.893 728V731H679.821V728H685.893ZM698.036 728V731H691.964V728H698.036ZM710.179 728V731H704.107V728H710.179ZM722.321 728V731H716.25V728H722.321ZM734.464 728V731H728.393V728H734.464ZM746.607 728V731H740.536V728H746.607ZM758.75 728V731H752.679V728H758.75ZM770.893 728V731H764.821V728H770.893ZM783.036 728V731H776.964V728H783.036ZM795.179 728V731H789.107V728H795.179ZM807.321 728V731H801.25V728H807.321ZM819.464 728V731H813.393V728H819.464ZM831.607 728V731H825.536V728H831.607ZM843.75 728V731H837.679V728H843.75ZM855.893 728V731H849.821V728H855.893ZM868.036 728V731H861.965V728H868.036ZM880.179 728V731H874.107V728H880.179ZM892.321 728V731H886.25V728H892.321ZM904.465 728V731H898.394V728H904.465ZM916.607 728V731H910.536V728H916.607ZM928.75 728V731H922.679V728H928.75ZM940.894 728V731H934.821V728H940.894ZM950 728V731H946.965V728H950ZM528 716.179V722.107H525V716.179H528ZM950 716.179V722.107H947V716.179H950ZM528 704.321V710.25H525V704.321H528ZM950 704.321V710.25H947V704.321H950ZM528 692.464V698.393H525V692.464H528ZM950 692.464V698.393H947V692.464H950ZM528 680.607V686.536H525V680.607H528ZM950 680.607V686.536H947V680.607H950ZM528 668.75V674.679H525V668.75H528ZM950 668.75V674.679H947V668.75H950ZM528 656.893V662.821H525V656.893H528ZM950 656.893V662.821H947V656.893H950ZM528 645.036V650.964H525V645.036H528ZM950 645.036V650.964H947V645.036H950ZM528 633.179V639.107H525V633.179H528ZM950 633.179V639.107H947V633.179H950ZM528 621.321V627.25H525V621.321H528ZM950 621.321V627.25H947V621.321H950ZM528 609.464V615.393H525V609.464H528ZM950 609.464V615.393H947V609.464H950ZM528 597.607V603.536H525V597.607H528ZM950 597.607V603.536H947V597.607H950ZM528 585.75V591.679H525V585.75H528ZM950 585.75V591.679H947V585.75H950ZM528 573.893V579.821H525V573.893H528ZM950 573.893V579.821H947V573.893H950ZM528 562.036V567.964H525V562.036H528ZM950 562.036V567.964H947V562.036H950ZM528 550.179V556.107H525V550.179H528ZM950 550.179V556.107H947V550.179H950ZM528 538.321V544.25H525V538.321H528ZM950 538.321V544.25H947V538.321H950ZM528 526.464V532.393H525V526.464H528ZM950 526.464V532.393H947V526.464H950ZM528 514.607V520.536H525V514.607H528ZM950 514.607V520.536H947V514.607H950ZM528 502.75V508.679H525V502.75H528ZM950 502.75V508.679H947V502.75H950ZM528 490.893V496.821H525V490.893H528ZM950 490.893V496.821H947V490.893H950ZM528.035 482V485H525V482H528.035ZM540.179 482V485H534.106V482H540.179ZM552.321 482V485H546.25V482H552.321ZM564.464 482V485H558.393V482H564.464ZM576.606 482V485H570.535V482H576.606ZM588.75 482V485H582.679V482H588.75ZM600.893 482V485H594.821V482H600.893ZM613.035 482V485H606.964V482H613.035ZM625.179 482V485H619.107V482H625.179ZM637.321 482V485H631.25V482H637.321ZM649.464 482V485H643.393V482H649.464ZM661.607 482V485H655.536V482H661.607ZM673.75 482V485H667.679V482H673.75ZM685.893 482V485H679.821V482H685.893ZM698.036 482V485H691.964V482H698.036ZM710.179 482V485H704.107V482H710.179ZM722.321 482V485H716.25V482H722.321ZM734.464 482V485H728.393V482H734.464ZM746.607 482V485H740.536V482H746.607ZM758.75 482V485H752.679V482H758.75ZM770.893 482V485H764.821V482H770.893ZM783.036 482V485H776.964V482H783.036ZM795.179 482V485H789.107V482H795.179ZM807.321 482V485H801.25V482H807.321ZM819.464 482V485H813.393V482H819.464ZM831.607 482V485H825.536V482H831.607ZM843.75 482V485H837.679V482H843.75ZM855.893 482V485H849.821V482H855.893ZM868.036 482V485H861.964V482H868.036ZM880.179 482V485H874.107V482H880.179ZM892.321 482V485H886.25V482H892.321ZM904.464 482V485H898.393V482H904.464ZM916.607 482V485H910.536V482H916.607ZM928.75 482V485H922.679V482H928.75ZM940.893 482V485H934.821V482H940.893ZM950 482V485H946.964V482H950Z" fill="#7B8B8A"/>
<rect x="525" y="482" width="20" height="20" fill="#7B8B8A"/>
<rect x="930" y="482" width="20" height="20" fill="#7B8B8A"/>
<rect x="525" y="711" width="20" height="20" fill="#7B8B8A"/>
<rect x="930" y="711" width="20" height="20" fill="#7B8B8A"/>
<path d="M938.88 496.079L937.404 493.468L940 492L941.477 494.611L938.88 496.079ZM928.496 501.951L927.019 499.34L932.212 496.404L933.688 499.015L928.496 501.951ZM918.111 507.823L916.635 505.211L921.827 502.275L923.304 504.887L918.111 507.823ZM907.727 513.695L906.25 511.083L911.442 508.147L912.919 510.759L907.727 513.695ZM897.342 519.566L895.865 516.955L901.058 514.019L902.534 516.631L897.342 519.566ZM886.957 525.438L885.481 522.827L890.673 519.891L892.15 522.502L886.957 525.438ZM876.573 531.31L875.096 528.699L880.289 525.763L881.765 528.374L876.573 531.31ZM866.188 537.182L864.712 534.57L869.904 531.634L871.381 534.246L866.188 537.182ZM855.804 543.054L854.327 540.442L859.519 537.506L860.996 540.118L855.804 543.054ZM845.419 548.925L843.943 546.314L849.135 543.378L850.611 545.989L845.419 548.925ZM835.035 554.797L833.558 552.186L838.75 549.25L840.227 551.861L835.035 554.797ZM824.65 560.669L823.173 558.057L828.366 555.122L829.842 557.733L824.65 560.669ZM814.265 566.541L812.789 563.929L817.981 560.993L819.458 563.605L814.265 566.541ZM803.881 572.412L802.404 569.801L807.596 566.865L809.073 569.477L803.881 572.412ZM793.496 578.284L792.02 575.673L797.212 572.737L798.688 575.348L793.496 578.284ZM783.112 584.156L781.635 581.545L786.827 578.609L788.304 581.22L783.112 584.156ZM772.726 590.028L771.25 587.417L776.442 584.481L777.918 587.092L772.726 590.028ZM762.342 595.9L760.865 593.289L766.057 590.353L767.534 592.964L762.342 595.9ZM751.957 601.772L750.48 599.16L755.673 596.224L757.149 598.836L751.957 601.772ZM741.572 607.644L740.096 605.032L745.288 602.096L746.765 604.708L741.572 607.644ZM731.188 613.515L729.711 610.904L734.904 607.968L736.38 610.579L731.188 613.515ZM720.803 619.387L719.327 616.776L724.519 613.84L725.996 616.451L720.803 619.387ZM710.419 625.259L708.942 622.647L714.134 619.712L715.611 622.323L710.419 625.259ZM700.034 631.131L698.557 628.519L703.75 625.583L705.226 628.195L700.034 631.131ZM689.649 637.002L688.173 634.391L693.365 631.455L694.842 634.067L689.649 637.002ZM679.265 642.874L677.788 640.263L682.981 637.327L684.457 639.938L679.265 642.874ZM668.88 648.746L667.404 646.135L672.596 643.199L674.073 645.81L668.88 648.746ZM658.496 654.618L657.019 652.006L662.211 649.07L663.688 651.682L658.496 654.618ZM648.111 660.49L646.635 657.878L651.827 654.942L653.303 657.554L648.111 660.49ZM637.727 666.361L636.25 663.75L641.442 660.814L642.919 663.425L637.727 666.361ZM627.342 672.233L625.865 669.622L631.058 666.686L632.534 669.297L627.342 672.233ZM616.957 678.105L615.481 675.493L620.673 672.558L622.15 675.169L616.957 678.105ZM606.573 683.977L605.096 681.365L610.288 678.429L611.765 681.041L606.573 683.977ZM596.188 689.848L594.712 687.237L599.904 684.301L601.38 686.913L596.188 689.848ZM585.804 695.72L584.327 693.109L589.519 690.173L590.996 692.784L585.804 695.72ZM575.418 701.593L573.942 698.981L579.134 696.045L580.61 698.657L575.418 701.593ZM565.034 707.464L563.557 704.853L568.749 701.917L570.226 704.528L565.034 707.464ZM554.649 713.336L553.172 710.725L558.365 707.789L559.841 710.4L554.649 713.336ZM544.264 719.208L542.788 716.596L547.98 713.661L549.457 716.272L544.264 719.208ZM536.477 723.611L535 721L537.596 719.532L539.072 722.144L536.477 723.611Z" fill="#7B8B8A"/>
<path d="M536.12 496.079L537.596 493.468L535 492L533.523 494.611L536.12 496.079ZM546.504 501.951L547.981 499.34L542.788 496.404L541.312 499.015L546.504 501.951ZM556.889 507.823L558.365 505.211L553.173 502.275L551.696 504.887L556.889 507.823ZM567.273 513.695L568.75 511.083L563.558 508.147L562.081 510.759L567.273 513.695ZM577.658 519.566L579.135 516.955L573.942 514.019L572.466 516.631L577.658 519.566ZM588.043 525.438L589.519 522.827L584.327 519.891L582.85 522.502L588.043 525.438ZM598.427 531.31L599.904 528.699L594.711 525.763L593.235 528.374L598.427 531.31ZM608.812 537.182L610.288 534.57L605.096 531.634L603.619 534.246L608.812 537.182ZM619.196 543.054L620.673 540.442L615.481 537.506L614.004 540.118L619.196 543.054ZM629.581 548.925L631.057 546.314L625.865 543.378L624.389 545.989L629.581 548.925ZM639.965 554.797L641.442 552.186L636.25 549.25L634.773 551.861L639.965 554.797ZM650.35 560.669L651.827 558.057L646.634 555.122L645.158 557.733L650.35 560.669ZM660.735 566.541L662.211 563.929L657.019 560.993L655.542 563.605L660.735 566.541ZM671.119 572.412L672.596 569.801L667.404 566.865L665.927 569.477L671.119 572.412ZM681.504 578.284L682.98 575.673L677.788 572.737L676.312 575.348L681.504 578.284ZM691.888 584.156L693.365 581.545L688.173 578.609L686.696 581.22L691.888 584.156ZM702.274 590.028L703.75 587.417L698.558 584.481L697.082 587.092L702.274 590.028ZM712.658 595.9L714.135 593.289L708.943 590.353L707.466 592.964L712.658 595.9ZM723.043 601.772L724.52 599.16L719.327 596.224L717.851 598.836L723.043 601.772ZM733.428 607.644L734.904 605.032L729.712 602.096L728.235 604.708L733.428 607.644ZM743.812 613.515L745.289 610.904L740.096 607.968L738.62 610.579L743.812 613.515ZM754.197 619.387L755.673 616.776L750.481 613.84L749.004 616.451L754.197 619.387ZM764.581 625.259L766.058 622.647L760.866 619.712L759.389 622.323L764.581 625.259ZM774.966 631.131L776.443 628.519L771.25 625.583L769.774 628.195L774.966 631.131ZM785.351 637.002L786.827 634.391L781.635 631.455L780.158 634.067L785.351 637.002ZM795.735 642.874L797.212 640.263L792.019 637.327L790.543 639.938L795.735 642.874ZM806.12 648.746L807.596 646.135L802.404 643.199L800.927 645.81L806.12 648.746ZM816.504 654.618L817.981 652.006L812.789 649.07L811.312 651.682L816.504 654.618ZM826.889 660.49L828.365 657.878L823.173 654.942L821.697 657.554L826.889 660.49ZM837.273 666.361L838.75 663.75L833.558 660.814L832.081 663.425L837.273 666.361ZM847.658 672.233L849.135 669.622L843.942 666.686L842.466 669.297L847.658 672.233ZM858.043 678.105L859.519 675.493L854.327 672.558L852.85 675.169L858.043 678.105ZM868.427 683.977L869.904 681.365L864.712 678.429L863.235 681.041L868.427 683.977ZM878.812 689.848L880.288 687.237L875.096 684.301L873.62 686.913L878.812 689.848ZM889.196 695.72L890.673 693.109L885.481 690.173L884.004 692.784L889.196 695.72ZM899.582 701.593L901.058 698.981L895.866 696.045L894.39 698.657L899.582 701.593ZM909.966 707.464L911.443 704.853L906.251 701.917L904.774 704.528L909.966 707.464ZM920.351 713.336L921.828 710.725L916.635 707.789L915.159 710.4L920.351 713.336ZM930.736 719.208L932.212 716.596L927.02 713.661L925.543 716.272L930.736 719.208ZM938.523 723.611L940 721L937.404 719.532L935.928 722.144L938.523 723.611Z" fill="#7B8B8A"/>
<rect x="525" y="751" width="425" height="115" fill="#7B8B8A"/>
<rect x="525" y="886" width="425" height="28" fill="#7B8B8A"/>
<rect x="525" y="924" width="425" height="28" fill="#7B8B8A"/>
<rect x="525" y="962" width="277" height="28" fill="#7B8B8A"/>
<path d="M973.036 728V731H970V728H973.036ZM985.179 728V731H979.107V728H985.179ZM997.321 728V731H991.25V728H997.321ZM1009.46 728V731H1003.39V728H1009.46ZM1021.61 728V731H1015.54V728H1021.61ZM1033.75 728V731H1027.68V728H1033.75ZM1045.89 728V731H1039.82V728H1045.89ZM1058.04 728V731H1051.96V728H1058.04ZM1070.18 728V731H1064.11V728H1070.18ZM1082.32 728V731H1076.25V728H1082.32ZM1094.46 728V731H1088.39V728H1094.46ZM1106.61 728V731H1100.54V728H1106.61ZM1118.75 728V731H1112.68V728H1118.75ZM1130.89 728V731H1124.82V728H1130.89ZM1143.04 728V731H1136.96V728H1143.04ZM1155.18 728V731H1149.11V728H1155.18ZM1167.32 728V731H1161.25V728H1167.32ZM1179.46 728V731H1173.39V728H1179.46ZM1191.61 728V731H1185.54V728H1191.61ZM1203.75 728V731H1197.68V728H1203.75ZM1215.89 728V731H1209.82V728H1215.89ZM1228.04 728V731H1221.96V728H1228.04ZM1240.18 728V731H1234.11V728H1240.18ZM1252.32 728V731H1246.25V728H1252.32ZM1264.46 728V731H1258.39V728H1264.46ZM1276.61 728V731H1270.54V728H1276.61ZM1288.75 728V731H1282.68V728H1288.75ZM1300.89 728V731H1294.82V728H1300.89ZM1313.04 728V731H1306.96V728H1313.04ZM1325.18 728V731H1319.11V728H1325.18ZM1337.32 728V731H1331.25V728H1337.32ZM1349.46 728V731H1343.39V728H1349.46ZM1361.61 728V731H1355.54V728H1361.61ZM1373.75 728V731H1367.68V728H1373.75ZM1385.89 728V731H1379.82V728H1385.89ZM1395 728V731H1391.96V728H1395ZM973 716.179V722.107H970V716.179H973ZM1395 716.179V722.107H1392V716.179H1395ZM973 704.321V710.25H970V704.321H973ZM1395 704.321V710.25H1392V704.321H1395ZM973 692.464V698.393H970V692.464H973ZM1395 692.464V698.393H1392V692.464H1395ZM973 680.607V686.536H970V680.607H973ZM1395 680.607V686.536H1392V680.607H1395ZM973 668.75V674.679H970V668.75H973ZM1395 668.75V674.679H1392V668.75H1395ZM973 656.893V662.821H970V656.893H973ZM1395 656.893V662.821H1392V656.893H1395ZM973 645.036V650.964H970V645.036H973ZM1395 645.036V650.964H1392V645.036H1395ZM973 633.179V639.107H970V633.179H973ZM1395 633.179V639.107H1392V633.179H1395ZM973 621.321V627.25H970V621.321H973ZM1395 621.321V627.25H1392V621.321H1395ZM973 609.464V615.393H970V609.464H973ZM1395 609.464V615.393H1392V609.464H1395ZM973 597.607V603.536H970V597.607H973ZM1395 597.607V603.536H1392V597.607H1395ZM973 585.75V591.679H970V585.75H973ZM1395 585.75V591.679H1392V585.75H1395ZM973 573.893V579.821H970V573.893H973ZM1395 573.893V579.821H1392V573.893H1395ZM973 562.036V567.964H970V562.036H973ZM1395 562.036V567.964H1392V562.036H1395ZM973 550.179V556.107H970V550.179H973ZM1395 550.179V556.107H1392V550.179H1395ZM973 538.321V544.25H970V538.321H973ZM1395 538.321V544.25H1392V538.321H1395ZM973 526.464V532.393H970V526.464H973ZM1395 526.464V532.393H1392V526.464H1395ZM973 514.607V520.536H970V514.607H973ZM1395 514.607V520.536H1392V514.607H1395ZM973 502.75V508.679H970V502.75H973ZM1395 502.75V508.679H1392V502.75H1395ZM973 490.893V496.821H970V490.893H973ZM1395 490.893V496.821H1392V490.893H1395ZM973.035 482V485H970V482H973.035ZM985.179 482V485H979.106V482H985.179ZM997.321 482V485H991.25V482H997.321ZM1009.46 482V485H1003.39V482H1009.46ZM1021.61 482V485H1015.54V482H1021.61ZM1033.75 482V485H1027.68V482H1033.75ZM1045.89 482V485H1039.82V482H1045.89ZM1058.04 482V485H1051.96V482H1058.04ZM1070.18 482V485H1064.11V482H1070.18ZM1082.32 482V485H1076.25V482H1082.32ZM1094.46 482V485H1088.39V482H1094.46ZM1106.61 482V485H1100.54V482H1106.61ZM1118.75 482V485H1112.68V482H1118.75ZM1130.89 482V485H1124.82V482H1130.89ZM1143.04 482V485H1136.96V482H1143.04ZM1155.18 482V485H1149.11V482H1155.18ZM1167.32 482V485H1161.25V482H1167.32ZM1179.46 482V485H1173.39V482H1179.46ZM1191.61 482V485H1185.54V482H1191.61ZM1203.75 482V485H1197.68V482H1203.75ZM1215.89 482V485H1209.82V482H1215.89ZM1228.04 482V485H1221.96V482H1228.04ZM1240.18 482V485H1234.11V482H1240.18ZM1252.32 482V485H1246.25V482H1252.32ZM1264.46 482V485H1258.39V482H1264.46ZM1276.61 482V485H1270.54V482H1276.61ZM1288.75 482V485H1282.68V482H1288.75ZM1300.89 482V485H1294.82V482H1300.89ZM1313.04 482V485H1306.96V482H1313.04ZM1325.18 482V485H1319.11V482H1325.18ZM1337.32 482V485H1331.25V482H1337.32ZM1349.46 482V485H1343.39V482H1349.46ZM1361.61 482V485H1355.54V482H1361.61ZM1373.75 482V485H1367.68V482H1373.75ZM1385.89 482V485H1379.82V482H1385.89ZM1395 482V485H1391.96V482H1395Z" fill="#7B8B8A"/>
<rect x="970" y="482" width="20" height="20" fill="#7B8B8A"/>
<rect x="1375" y="482" width="20" height="20" fill="#7B8B8A"/>
<rect x="970" y="711" width="20" height="20" fill="#7B8B8A"/>
<rect x="1375" y="711" width="20" height="20" fill="#7B8B8A"/>
<path d="M1383.88 496.079L1382.4 493.468L1385 492L1386.48 494.611L1383.88 496.079ZM1373.5 501.951L1372.02 499.34L1377.21 496.404L1378.69 499.015L1373.5 501.951ZM1363.11 507.823L1361.63 505.211L1366.83 502.275L1368.3 504.887L1363.11 507.823ZM1352.73 513.695L1351.25 511.083L1356.44 508.147L1357.92 510.759L1352.73 513.695ZM1342.34 519.566L1340.87 516.955L1346.06 514.019L1347.53 516.631L1342.34 519.566ZM1331.96 525.438L1330.48 522.827L1335.67 519.891L1337.15 522.502L1331.96 525.438ZM1321.57 531.31L1320.1 528.699L1325.29 525.763L1326.77 528.374L1321.57 531.31ZM1311.19 537.182L1309.71 534.57L1314.9 531.634L1316.38 534.246L1311.19 537.182ZM1300.8 543.054L1299.33 540.442L1304.52 537.506L1306 540.118L1300.8 543.054ZM1290.42 548.925L1288.94 546.314L1294.13 543.378L1295.61 545.989L1290.42 548.925ZM1280.03 554.797L1278.56 552.186L1283.75 549.25L1285.23 551.861L1280.03 554.797ZM1269.65 560.669L1268.17 558.057L1273.37 555.122L1274.84 557.733L1269.65 560.669ZM1259.27 566.541L1257.79 563.929L1262.98 560.993L1264.46 563.605L1259.27 566.541ZM1248.88 572.412L1247.4 569.801L1252.6 566.865L1254.07 569.477L1248.88 572.412ZM1238.5 578.284L1237.02 575.673L1242.21 572.737L1243.69 575.348L1238.5 578.284ZM1228.11 584.156L1226.64 581.545L1231.83 578.609L1233.3 581.22L1228.11 584.156ZM1217.73 590.028L1216.25 587.417L1221.44 584.481L1222.92 587.092L1217.73 590.028ZM1207.34 595.9L1205.86 593.289L1211.06 590.353L1212.53 592.964L1207.34 595.9ZM1196.96 601.772L1195.48 599.16L1200.67 596.224L1202.15 598.836L1196.96 601.772ZM1186.57 607.644L1185.1 605.032L1190.29 602.096L1191.76 604.708L1186.57 607.644ZM1176.19 613.515L1174.71 610.904L1179.9 607.968L1181.38 610.579L1176.19 613.515ZM1165.8 619.387L1164.33 616.776L1169.52 613.84L1171 616.451L1165.8 619.387ZM1155.42 625.259L1153.94 622.647L1159.13 619.712L1160.61 622.323L1155.42 625.259ZM1145.03 631.131L1143.56 628.519L1148.75 625.583L1150.23 628.195L1145.03 631.131ZM1134.65 637.002L1133.17 634.391L1138.37 631.455L1139.84 634.067L1134.65 637.002ZM1124.26 642.874L1122.79 640.263L1127.98 637.327L1129.46 639.938L1124.26 642.874ZM1113.88 648.746L1112.4 646.135L1117.6 643.199L1119.07 645.81L1113.88 648.746ZM1103.5 654.618L1102.02 652.006L1107.21 649.07L1108.69 651.682L1103.5 654.618ZM1093.11 660.49L1091.63 657.878L1096.83 654.942L1098.3 657.554L1093.11 660.49ZM1082.73 666.361L1081.25 663.75L1086.44 660.814L1087.92 663.425L1082.73 666.361ZM1072.34 672.233L1070.87 669.622L1076.06 666.686L1077.53 669.297L1072.34 672.233ZM1061.96 678.105L1060.48 675.493L1065.67 672.558L1067.15 675.169L1061.96 678.105ZM1051.57 683.977L1050.1 681.365L1055.29 678.429L1056.77 681.041L1051.57 683.977ZM1041.19 689.848L1039.71 687.237L1044.9 684.301L1046.38 686.913L1041.19 689.848ZM1030.8 695.72L1029.33 693.109L1034.52 690.173L1036 692.784L1030.8 695.72ZM1020.42 701.593L1018.94 698.981L1024.13 696.045L1025.61 698.657L1020.42 701.593ZM1010.03 707.464L1008.56 704.853L1013.75 701.917L1015.23 704.528L1010.03 707.464ZM999.649 713.336L998.172 710.725L1003.36 707.789L1004.84 710.4L999.649 713.336ZM989.264 719.208L987.788 716.596L992.98 713.661L994.457 716.272L989.264 719.208ZM981.477 723.611L980 721L982.596 719.532L984.072 722.144L981.477 723.611Z" fill="#7B8B8A"/>
<path d="M981.12 496.079L982.596 493.468L980 492L978.523 494.611L981.12 496.079ZM991.504 501.951L992.981 499.34L987.788 496.404L986.312 499.015L991.504 501.951ZM1001.89 507.823L1003.37 505.211L998.173 502.275L996.696 504.887L1001.89 507.823ZM1012.27 513.695L1013.75 511.083L1008.56 508.147L1007.08 510.759L1012.27 513.695ZM1022.66 519.566L1024.13 516.955L1018.94 514.019L1017.47 516.631L1022.66 519.566ZM1033.04 525.438L1034.52 522.827L1029.33 519.891L1027.85 522.502L1033.04 525.438ZM1043.43 531.31L1044.9 528.699L1039.71 525.763L1038.23 528.374L1043.43 531.31ZM1053.81 537.182L1055.29 534.57L1050.1 531.634L1048.62 534.246L1053.81 537.182ZM1064.2 543.054L1065.67 540.442L1060.48 537.506L1059 540.118L1064.2 543.054ZM1074.58 548.925L1076.06 546.314L1070.87 543.378L1069.39 545.989L1074.58 548.925ZM1084.97 554.797L1086.44 552.186L1081.25 549.25L1079.77 551.861L1084.97 554.797ZM1095.35 560.669L1096.83 558.057L1091.63 555.122L1090.16 557.733L1095.35 560.669ZM1105.73 566.541L1107.21 563.929L1102.02 560.993L1100.54 563.605L1105.73 566.541ZM1116.12 572.412L1117.6 569.801L1112.4 566.865L1110.93 569.477L1116.12 572.412ZM1126.5 578.284L1127.98 575.673L1122.79 572.737L1121.31 575.348L1126.5 578.284ZM1136.89 584.156L1138.36 581.545L1133.17 578.609L1131.7 581.22L1136.89 584.156ZM1147.27 590.028L1148.75 587.417L1143.56 584.481L1142.08 587.092L1147.27 590.028ZM1157.66 595.9L1159.14 593.289L1153.94 590.353L1152.47 592.964L1157.66 595.9ZM1168.04 601.772L1169.52 599.16L1164.33 596.224L1162.85 598.836L1168.04 601.772ZM1178.43 607.644L1179.9 605.032L1174.71 602.096L1173.24 604.708L1178.43 607.644ZM1188.81 613.515L1190.29 610.904L1185.1 607.968L1183.62 610.579L1188.81 613.515ZM1199.2 619.387L1200.67 616.776L1195.48 613.84L1194 616.451L1199.2 619.387ZM1209.58 625.259L1211.06 622.647L1205.87 619.712L1204.39 622.323L1209.58 625.259ZM1219.97 631.131L1221.44 628.519L1216.25 625.583L1214.77 628.195L1219.97 631.131ZM1230.35 637.002L1231.83 634.391L1226.63 631.455L1225.16 634.067L1230.35 637.002ZM1240.74 642.874L1242.21 640.263L1237.02 637.327L1235.54 639.938L1240.74 642.874ZM1251.12 648.746L1252.6 646.135L1247.4 643.199L1245.93 645.81L1251.12 648.746ZM1261.5 654.618L1262.98 652.006L1257.79 649.07L1256.31 651.682L1261.5 654.618ZM1271.89 660.49L1273.37 657.878L1268.17 654.942L1266.7 657.554L1271.89 660.49ZM1282.27 666.361L1283.75 663.75L1278.56 660.814L1277.08 663.425L1282.27 666.361ZM1292.66 672.233L1294.13 669.622L1288.94 666.686L1287.47 669.297L1292.66 672.233ZM1303.04 678.105L1304.52 675.493L1299.33 672.558L1297.85 675.169L1303.04 678.105ZM1313.43 683.977L1314.9 681.365L1309.71 678.429L1308.23 681.041L1313.43 683.977ZM1323.81 689.848L1325.29 687.237L1320.1 684.301L1318.62 686.913L1323.81 689.848ZM1334.2 695.72L1335.67 693.109L1330.48 690.173L1329 692.784L1334.2 695.72ZM1344.58 701.593L1346.06 698.981L1340.87 696.045L1339.39 698.657L1344.58 701.593ZM1354.97 707.464L1356.44 704.853L1351.25 701.917L1349.77 704.528L1354.97 707.464ZM1365.35 713.336L1366.83 710.725L1361.64 707.789L1360.16 710.4L1365.35 713.336ZM1375.74 719.208L1377.21 716.596L1372.02 713.661L1370.54 716.272L1375.74 719.208ZM1383.52 723.611L1385 721L1382.4 719.532L1380.93 722.144L1383.52 723.611Z" fill="#7B8B8A"/>
<rect x="970" y="751" width="425" height="115" fill="#7B8B8A"/>
<rect x="970" y="886" width="425" height="28" fill="#7B8B8A"/>
<rect x="970" y="924" width="425" height="28" fill="#7B8B8A"/>
<rect x="970" y="962" width="277" height="28" fill="#7B8B8A"/>
<path d="M1418.04 728V731H1415V728H1418.04ZM1430.18 728V731H1424.11V728H1430.18ZM1442.32 728V731H1436.25V728H1442.32ZM1454.46 728V731H1448.39V728H1454.46ZM1466.61 728V731H1460.54V728H1466.61ZM1478.75 728V731H1472.68V728H1478.75ZM1490.89 728V731H1484.82V728H1490.89ZM1503.04 728V731H1496.96V728H1503.04ZM1515.18 728V731H1509.11V728H1515.18ZM1527.32 728V731H1521.25V728H1527.32ZM1539.46 728V731H1533.39V728H1539.46ZM1551.61 728V731H1545.54V728H1551.61ZM1563.75 728V731H1557.68V728H1563.75ZM1575.89 728V731H1569.82V728H1575.89ZM1588.04 728V731H1581.96V728H1588.04ZM1600.18 728V731H1594.11V728H1600.18ZM1612.32 728V731H1606.25V728H1612.32ZM1624.46 728V731H1618.39V728H1624.46ZM1636.61 728V731H1630.54V728H1636.61ZM1648.75 728V731H1642.68V728H1648.75ZM1660.89 728V731H1654.82V728H1660.89ZM1673.04 728V731H1666.96V728H1673.04ZM1685.18 728V731H1679.11V728H1685.18ZM1697.32 728V731H1691.25V728H1697.32ZM1709.46 728V731H1703.39V728H1709.46ZM1721.61 728V731H1715.54V728H1721.61ZM1733.75 728V731H1727.68V728H1733.75ZM1745.89 728V731H1739.82V728H1745.89ZM1758.04 728V731H1751.96V728H1758.04ZM1770.18 728V731H1764.11V728H1770.18ZM1782.32 728V731H1776.25V728H1782.32ZM1794.46 728V731H1788.39V728H1794.46ZM1806.61 728V731H1800.54V728H1806.61ZM1818.75 728V731H1812.68V728H1818.75ZM1830.89 728V731H1824.82V728H1830.89ZM1840 728V731H1836.96V728H1840ZM1418 716.179V722.107H1415V716.179H1418ZM1840 716.179V722.107H1837V716.179H1840ZM1418 704.321V710.25H1415V704.321H1418ZM1840 704.321V710.25H1837V704.321H1840ZM1418 692.464V698.393H1415V692.464H1418ZM1840 692.464V698.393H1837V692.464H1840ZM1418 680.607V686.536H1415V680.607H1418ZM1840 680.607V686.536H1837V680.607H1840ZM1418 668.75V674.679H1415V668.75H1418ZM1840 668.75V674.679H1837V668.75H1840ZM1418 656.893V662.821H1415V656.893H1418ZM1840 656.893V662.821H1837V656.893H1840ZM1418 645.036V650.964H1415V645.036H1418ZM1840 645.036V650.964H1837V645.036H1840ZM1418 633.179V639.107H1415V633.179H1418ZM1840 633.179V639.107H1837V633.179H1840ZM1418 621.321V627.25H1415V621.321H1418ZM1840 621.321V627.25H1837V621.321H1840ZM1418 609.464V615.393H1415V609.464H1418ZM1840 609.464V615.393H1837V609.464H1840ZM1418 597.607V603.536H1415V597.607H1418ZM1840 597.607V603.536H1837V597.607H1840ZM1418 585.75V591.679H1415V585.75H1418ZM1840 585.75V591.679H1837V585.75H1840ZM1418 573.893V579.821H1415V573.893H1418ZM1840 573.893V579.821H1837V573.893H1840ZM1418 562.036V567.964H1415V562.036H1418ZM1840 562.036V567.964H1837V562.036H1840ZM1418 550.179V556.107H1415V550.179H1418ZM1840 550.179V556.107H1837V550.179H1840ZM1418 538.321V544.25H1415V538.321H1418ZM1840 538.321V544.25H1837V538.321H1840ZM1418 526.464V532.393H1415V526.464H1418ZM1840 526.464V532.393H1837V526.464H1840ZM1418 514.607V520.536H1415V514.607H1418ZM1840 514.607V520.536H1837V514.607H1840ZM1418 502.75V508.679H1415V502.75H1418ZM1840 502.75V508.679H1837V502.75H1840ZM1418 490.893V496.821H1415V490.893H1418ZM1840 490.893V496.821H1837V490.893H1840ZM1418.04 482V485H1415V482H1418.04ZM1430.18 482V485H1424.11V482H1430.18ZM1442.32 482V485H1436.25V482H1442.32ZM1454.46 482V485H1448.39V482H1454.46ZM1466.61 482V485H1460.54V482H1466.61ZM1478.75 482V485H1472.68V482H1478.75ZM1490.89 482V485H1484.82V482H1490.89ZM1503.04 482V485H1496.96V482H1503.04ZM1515.18 482V485H1509.11V482H1515.18ZM1527.32 482V485H1521.25V482H1527.32ZM1539.46 482V485H1533.39V482H1539.46ZM1551.61 482V485H1545.54V482H1551.61ZM1563.75 482V485H1557.68V482H1563.75ZM1575.89 482V485H1569.82V482H1575.89ZM1588.04 482V485H1581.96V482H1588.04ZM1600.18 482V485H1594.11V482H1600.18ZM1612.32 482V485H1606.25V482H1612.32ZM1624.46 482V485H1618.39V482H1624.46ZM1636.61 482V485H1630.54V482H1636.61ZM1648.75 482V485H1642.68V482H1648.75ZM1660.89 482V485H1654.82V482H1660.89ZM1673.04 482V485H1666.96V482H1673.04ZM1685.18 482V485H1679.11V482H1685.18ZM1697.32 482V485H1691.25V482H1697.32ZM1709.46 482V485H1703.39V482H1709.46ZM1721.61 482V485H1715.54V482H1721.61ZM1733.75 482V485H1727.68V482H1733.75ZM1745.89 482V485H1739.82V482H1745.89ZM1758.04 482V485H1751.96V482H1758.04ZM1770.18 482V485H1764.11V482H1770.18ZM1782.32 482V485H1776.25V482H1782.32ZM1794.46 482V485H1788.39V482H1794.46ZM1806.61 482V485H1800.54V482H1806.61ZM1818.75 482V485H1812.68V482H1818.75ZM1830.89 482V485H1824.82V482H1830.89ZM1840 482V485H1836.96V482H1840Z" fill="#7B8B8A"/>
<rect x="1415" y="482" width="20" height="20" fill="#7B8B8A"/>
<rect x="1820" y="482" width="20" height="20" fill="#7B8B8A"/>
<rect x="1415" y="711" width="20" height="20" fill="#7B8B8A"/>
<rect x="1820" y="711" width="20" height="20" fill="#7B8B8A"/>
<path d="M1828.88 496.079L1827.4 493.468L1830 492L1831.48 494.611L1828.88 496.079ZM1818.5 501.951L1817.02 499.34L1822.21 496.404L1823.69 499.015L1818.5 501.951ZM1808.11 507.823L1806.63 505.211L1811.83 502.275L1813.3 504.887L1808.11 507.823ZM1797.73 513.695L1796.25 511.083L1801.44 508.147L1802.92 510.759L1797.73 513.695ZM1787.34 519.566L1785.87 516.955L1791.06 514.019L1792.53 516.631L1787.34 519.566ZM1776.96 525.438L1775.48 522.827L1780.67 519.891L1782.15 522.502L1776.96 525.438ZM1766.57 531.31L1765.1 528.699L1770.29 525.763L1771.77 528.374L1766.57 531.31ZM1756.19 537.182L1754.71 534.57L1759.9 531.634L1761.38 534.246L1756.19 537.182ZM1745.8 543.054L1744.33 540.442L1749.52 537.506L1751 540.118L1745.8 543.054ZM1735.42 548.925L1733.94 546.314L1739.13 543.378L1740.61 545.989L1735.42 548.925ZM1725.03 554.797L1723.56 552.186L1728.75 549.25L1730.23 551.861L1725.03 554.797ZM1714.65 560.669L1713.17 558.057L1718.37 555.122L1719.84 557.733L1714.65 560.669ZM1704.27 566.541L1702.79 563.929L1707.98 560.993L1709.46 563.605L1704.27 566.541ZM1693.88 572.412L1692.4 569.801L1697.6 566.865L1699.07 569.477L1693.88 572.412ZM1683.5 578.284L1682.02 575.673L1687.21 572.737L1688.69 575.348L1683.5 578.284ZM1673.11 584.156L1671.64 581.545L1676.83 578.609L1678.3 581.22L1673.11 584.156ZM1662.73 590.028L1661.25 587.417L1666.44 584.481L1667.92 587.092L1662.73 590.028ZM1652.34 595.9L1650.86 593.289L1656.06 590.353L1657.53 592.964L1652.34 595.9ZM1641.96 601.772L1640.48 599.16L1645.67 596.224L1647.15 598.836L1641.96 601.772ZM1631.57 607.644L1630.1 605.032L1635.29 602.096L1636.76 604.708L1631.57 607.644ZM1621.19 613.515L1619.71 610.904L1624.9 607.968L1626.38 610.579L1621.19 613.515ZM1610.8 619.387L1609.33 616.776L1614.52 613.84L1616 616.451L1610.8 619.387ZM1600.42 625.259L1598.94 622.647L1604.13 619.712L1605.61 622.323L1600.42 625.259ZM1590.03 631.131L1588.56 628.519L1593.75 625.583L1595.23 628.195L1590.03 631.131ZM1579.65 637.002L1578.17 634.391L1583.37 631.455L1584.84 634.067L1579.65 637.002ZM1569.26 642.874L1567.79 640.263L1572.98 637.327L1574.46 639.938L1569.26 642.874ZM1558.88 648.746L1557.4 646.135L1562.6 643.199L1564.07 645.81L1558.88 648.746ZM1548.5 654.618L1547.02 652.006L1552.21 649.07L1553.69 651.682L1548.5 654.618ZM1538.11 660.49L1536.63 657.878L1541.83 654.942L1543.3 657.554L1538.11 660.49ZM1527.73 666.361L1526.25 663.75L1531.44 660.814L1532.92 663.425L1527.73 666.361ZM1517.34 672.233L1515.87 669.622L1521.06 666.686L1522.53 669.297L1517.34 672.233ZM1506.96 678.105L1505.48 675.493L1510.67 672.558L1512.15 675.169L1506.96 678.105ZM1496.57 683.977L1495.1 681.365L1500.29 678.429L1501.77 681.041L1496.57 683.977ZM1486.19 689.848L1484.71 687.237L1489.9 684.301L1491.38 686.913L1486.19 689.848ZM1475.8 695.72L1474.33 693.109L1479.52 690.173L1481 692.784L1475.8 695.72ZM1465.42 701.593L1463.94 698.981L1469.13 696.045L1470.61 698.657L1465.42 701.593ZM1455.03 707.464L1453.56 704.853L1458.75 701.917L1460.23 704.528L1455.03 707.464ZM1444.65 713.336L1443.17 710.725L1448.36 707.789L1449.84 710.4L1444.65 713.336ZM1434.26 719.208L1432.79 716.596L1437.98 713.661L1439.46 716.272L1434.26 719.208ZM1426.48 723.611L1425 721L1427.6 719.532L1429.07 722.144L1426.48 723.611Z" fill="#7B8B8A"/>
<path d="M1426.12 496.079L1427.6 493.468L1425 492L1423.52 494.611L1426.12 496.079ZM1436.5 501.951L1437.98 499.34L1432.79 496.404L1431.31 499.015L1436.5 501.951ZM1446.89 507.823L1448.37 505.211L1443.17 502.275L1441.7 504.887L1446.89 507.823ZM1457.27 513.695L1458.75 511.083L1453.56 508.147L1452.08 510.759L1457.27 513.695ZM1467.66 519.566L1469.13 516.955L1463.94 514.019L1462.47 516.631L1467.66 519.566ZM1478.04 525.438L1479.52 522.827L1474.33 519.891L1472.85 522.502L1478.04 525.438ZM1488.43 531.31L1489.9 528.699L1484.71 525.763L1483.23 528.374L1488.43 531.31ZM1498.81 537.182L1500.29 534.57L1495.1 531.634L1493.62 534.246L1498.81 537.182ZM1509.2 543.054L1510.67 540.442L1505.48 537.506L1504 540.118L1509.2 543.054ZM1519.58 548.925L1521.06 546.314L1515.87 543.378L1514.39 545.989L1519.58 548.925ZM1529.97 554.797L1531.44 552.186L1526.25 549.25L1524.77 551.861L1529.97 554.797ZM1540.35 560.669L1541.83 558.057L1536.63 555.122L1535.16 557.733L1540.35 560.669ZM1550.73 566.541L1552.21 563.929L1547.02 560.993L1545.54 563.605L1550.73 566.541ZM1561.12 572.412L1562.6 569.801L1557.4 566.865L1555.93 569.477L1561.12 572.412ZM1571.5 578.284L1572.98 575.673L1567.79 572.737L1566.31 575.348L1571.5 578.284ZM1581.89 584.156L1583.36 581.545L1578.17 578.609L1576.7 581.22L1581.89 584.156ZM1592.27 590.028L1593.75 587.417L1588.56 584.481L1587.08 587.092L1592.27 590.028ZM1602.66 595.9L1604.14 593.289L1598.94 590.353L1597.47 592.964L1602.66 595.9ZM1613.04 601.772L1614.52 599.16L1609.33 596.224L1607.85 598.836L1613.04 601.772ZM1623.43 607.644L1624.9 605.032L1619.71 602.096L1618.24 604.708L1623.43 607.644ZM1633.81 613.515L1635.29 610.904L1630.1 607.968L1628.62 610.579L1633.81 613.515ZM1644.2 619.387L1645.67 616.776L1640.48 613.84L1639 616.451L1644.2 619.387ZM1654.58 625.259L1656.06 622.647L1650.87 619.712L1649.39 622.323L1654.58 625.259ZM1664.97 631.131L1666.44 628.519L1661.25 625.583L1659.77 628.195L1664.97 631.131ZM1675.35 637.002L1676.83 634.391L1671.63 631.455L1670.16 634.067L1675.35 637.002ZM1685.74 642.874L1687.21 640.263L1682.02 637.327L1680.54 639.938L1685.74 642.874ZM1696.12 648.746L1697.6 646.135L1692.4 643.199L1690.93 645.81L1696.12 648.746ZM1706.5 654.618L1707.98 652.006L1702.79 649.07L1701.31 651.682L1706.5 654.618ZM1716.89 660.49L1718.37 657.878L1713.17 654.942L1711.7 657.554L1716.89 660.49ZM1727.27 666.361L1728.75 663.75L1723.56 660.814L1722.08 663.425L1727.27 666.361ZM1737.66 672.233L1739.13 669.622L1733.94 666.686L1732.47 669.297L1737.66 672.233ZM1748.04 678.105L1749.52 675.493L1744.33 672.558L1742.85 675.169L1748.04 678.105ZM1758.43 683.977L1759.9 681.365L1754.71 678.429L1753.23 681.041L1758.43 683.977ZM1768.81 689.848L1770.29 687.237L1765.1 684.301L1763.62 686.913L1768.81 689.848ZM1779.2 695.72L1780.67 693.109L1775.48 690.173L1774 692.784L1779.2 695.72ZM1789.58 701.593L1791.06 698.981L1785.87 696.045L1784.39 698.657L1789.58 701.593ZM1799.97 707.464L1801.44 704.853L1796.25 701.917L1794.77 704.528L1799.97 707.464ZM1810.35 713.336L1811.83 710.725L1806.64 707.789L1805.16 710.4L1810.35 713.336ZM1820.74 719.208L1822.21 716.596L1817.02 713.661L1815.54 716.272L1820.74 719.208ZM1828.52 723.611L1830 721L1827.4 719.532L1825.93 722.144L1828.52 723.611Z" fill="#7B8B8A"/>
<rect x="1415" y="751" width="425" height="115" fill="#7B8B8A"/>
<rect x="1415" y="886" width="425" height="28" fill="#7B8B8A"/>
<rect x="1415" y="924" width="425" height="28" fill="#7B8B8A"/>
<rect x="1415" y="962" width="277" height="28" fill="#7B8B8A"/>
<path d="M83.0361 728V731H80V728H83.0361ZM95.1787 728V731H89.1074V728H95.1787ZM107.321 728V731H101.25V728H107.321ZM119.464 728V731H113.393V728H119.464ZM131.607 728V731H125.536V728H131.607ZM143.75 728V731H137.679V728H143.75ZM155.893 728V731H149.821V728H155.893ZM168.036 728V731H161.964V728H168.036ZM180.179 728V731H174.107V728H180.179ZM192.321 728V731H186.25V728H192.321ZM204.464 728V731H198.393V728H204.464ZM216.607 728V731H210.536V728H216.607ZM228.75 728V731H222.679V728H228.75ZM240.893 728V731H234.821V728H240.893ZM253.036 728V731H246.964V728H253.036ZM265.179 728V731H259.107V728H265.179ZM277.321 728V731H271.25V728H277.321ZM289.464 728V731H283.393V728H289.464ZM301.607 728V731H295.536V728H301.607ZM313.75 728V731H307.679V728H313.75ZM325.893 728V731H319.821V728H325.893ZM338.036 728V731H331.964V728H338.036ZM350.179 728V731H344.107V728H350.179ZM362.321 728V731H356.25V728H362.321ZM374.464 728V731H368.393V728H374.464ZM386.607 728V731H380.536V728H386.607ZM398.75 728V731H392.679V728H398.75ZM410.893 728V731H404.821V728H410.893ZM423.036 728V731H416.965V728H423.036ZM435.179 728V731H429.107V728H435.179ZM447.321 728V731H441.25V728H447.321ZM459.465 728V731H453.394V728H459.465ZM471.607 728V731H465.536V728H471.607ZM483.75 728V731H477.679V728H483.75ZM495.894 728V731H489.821V728H495.894ZM505 728V731H501.965V728H505ZM83 716.179V722.107H80V716.179H83ZM505 716.179V722.107H502V716.179H505ZM83 704.321V710.25H80V704.321H83ZM505 704.321V710.25H502V704.321H505ZM83 692.464V698.393H80V692.464H83ZM505 692.464V698.393H502V692.464H505ZM83 680.607V686.536H80V680.607H83ZM505 680.607V686.536H502V680.607H505ZM83 668.75V674.679H80V668.75H83ZM505 668.75V674.679H502V668.75H505ZM83 656.893V662.821H80V656.893H83ZM505 656.893V662.821H502V656.893H505ZM83 645.036V650.964H80V645.036H83ZM505 645.036V650.964H502V645.036H505ZM83 633.179V639.107H80V633.179H83ZM505 633.179V639.107H502V633.179H505ZM83 621.321V627.25H80V621.321H83ZM505 621.321V627.25H502V621.321H505ZM83 609.464V615.393H80V609.464H83ZM505 609.464V615.393H502V609.464H505ZM83 597.607V603.536H80V597.607H83ZM505 597.607V603.536H502V597.607H505ZM83 585.75V591.679H80V585.75H83ZM505 585.75V591.679H502V585.75H505ZM83 573.893V579.821H80V573.893H83ZM505 573.893V579.821H502V573.893H505ZM83 562.036V567.964H80V562.036H83ZM505 562.036V567.964H502V562.036H505ZM83 550.179V556.107H80V550.179H83ZM505 550.179V556.107H502V550.179H505ZM83 538.321V544.25H80V538.321H83ZM505 538.321V544.25H502V538.321H505ZM83 526.464V532.393H80V526.464H83ZM505 526.464V532.393H502V526.464H505ZM83 514.607V520.536H80V514.607H83ZM505 514.607V520.536H502V514.607H505ZM83 502.75V508.679H80V502.75H83ZM505 502.75V508.679H502V502.75H505ZM83 490.893V496.821H80V490.893H83ZM505 490.893V496.821H502V490.893H505ZM83.0352 482V485H80V482H83.0352ZM95.1787 482V485H89.1064V482H95.1787ZM107.321 482V485H101.25V482H107.321ZM119.464 482V485H113.393V482H119.464ZM131.606 482V485H125.535V482H131.606ZM143.75 482V485H137.679V482H143.75ZM155.893 482V485H149.821V482H155.893ZM168.035 482V485H161.964V482H168.035ZM180.179 482V485H174.107V482H180.179ZM192.321 482V485H186.25V482H192.321ZM204.464 482V485H198.393V482H204.464ZM216.607 482V485H210.536V482H216.607ZM228.75 482V485H222.679V482H228.75ZM240.893 482V485H234.821V482H240.893ZM253.036 482V485H246.964V482H253.036ZM265.179 482V485H259.107V482H265.179ZM277.321 482V485H271.25V482H277.321ZM289.464 482V485H283.393V482H289.464ZM301.607 482V485H295.536V482H301.607ZM313.75 482V485H307.679V482H313.75ZM325.893 482V485H319.821V482H325.893ZM338.036 482V485H331.964V482H338.036ZM350.179 482V485H344.107V482H350.179ZM362.321 482V485H356.25V482H362.321ZM374.464 482V485H368.393V482H374.464ZM386.607 482V485H380.536V482H386.607ZM398.75 482V485H392.679V482H398.75ZM410.893 482V485H404.821V482H410.893ZM423.036 482V485H416.964V482H423.036ZM435.179 482V485H429.107V482H435.179ZM447.321 482V485H441.25V482H447.321ZM459.464 482V485H453.393V482H459.464ZM471.607 482V485H465.536V482H471.607ZM483.75 482V485H477.679V482H483.75ZM495.893 482V485H489.821V482H495.893ZM505 482V485H501.964V482H505Z" fill="#7B8B8A"/>
<rect x="80" y="482" width="20" height="20" fill="#7B8B8A"/>
<rect x="485" y="482" width="20" height="20" fill="#7B8B8A"/>
<rect x="80" y="711" width="20" height="20" fill="#7B8B8A"/>
<rect x="485" y="711" width="20" height="20" fill="#7B8B8A"/>
<path d="M493.88 496.079L492.404 493.468L495 492L496.477 494.611L493.88 496.079ZM483.496 501.951L482.019 499.34L487.212 496.404L488.688 499.015L483.496 501.951ZM473.111 507.823L471.635 505.211L476.827 502.275L478.304 504.887L473.111 507.823ZM462.727 513.695L461.25 511.083L466.442 508.147L467.919 510.759L462.727 513.695ZM452.342 519.566L450.865 516.955L456.058 514.019L457.534 516.631L452.342 519.566ZM441.957 525.438L440.481 522.827L445.673 519.891L447.15 522.502L441.957 525.438ZM431.573 531.31L430.096 528.699L435.289 525.763L436.765 528.374L431.573 531.31ZM421.188 537.182L419.712 534.57L424.904 531.634L426.381 534.246L421.188 537.182ZM410.804 543.054L409.327 540.442L414.519 537.506L415.996 540.118L410.804 543.054ZM400.419 548.925L398.943 546.314L404.135 543.378L405.611 545.989L400.419 548.925ZM390.035 554.797L388.558 552.186L393.75 549.25L395.227 551.861L390.035 554.797ZM379.65 560.669L378.173 558.057L383.366 555.122L384.842 557.733L379.65 560.669ZM369.265 566.541L367.789 563.929L372.981 560.993L374.458 563.605L369.265 566.541ZM358.881 572.412L357.404 569.801L362.596 566.865L364.073 569.477L358.881 572.412ZM348.496 578.284L347.02 575.673L352.212 572.737L353.688 575.348L348.496 578.284ZM338.112 584.156L336.635 581.545L341.827 578.609L343.304 581.22L338.112 584.156ZM327.726 590.028L326.25 587.417L331.442 584.481L332.918 587.092L327.726 590.028ZM317.342 595.9L315.865 593.289L321.057 590.353L322.534 592.964L317.342 595.9ZM306.957 601.772L305.48 599.16L310.673 596.224L312.149 598.836L306.957 601.772ZM296.572 607.644L295.096 605.032L300.288 602.096L301.765 604.708L296.572 607.644ZM286.188 613.515L284.711 610.904L289.904 607.968L291.38 610.579L286.188 613.515ZM275.803 619.387L274.327 616.776L279.519 613.84L280.996 616.451L275.803 619.387ZM265.419 625.259L263.942 622.647L269.134 619.712L270.611 622.323L265.419 625.259ZM255.034 631.131L253.557 628.519L258.75 625.583L260.226 628.195L255.034 631.131ZM244.649 637.002L243.173 634.391L248.365 631.455L249.842 634.067L244.649 637.002ZM234.265 642.874L232.788 640.263L237.981 637.327L239.457 639.938L234.265 642.874ZM223.88 648.746L222.404 646.135L227.596 643.199L229.073 645.81L223.88 648.746ZM213.496 654.618L212.019 652.006L217.211 649.07L218.688 651.682L213.496 654.618ZM203.111 660.49L201.635 657.878L206.827 654.942L208.303 657.554L203.111 660.49ZM192.727 666.361L191.25 663.75L196.442 660.814L197.919 663.425L192.727 666.361ZM182.342 672.233L180.865 669.622L186.058 666.686L187.534 669.297L182.342 672.233ZM171.957 678.105L170.481 675.493L175.673 672.558L177.15 675.169L171.957 678.105ZM161.573 683.977L160.096 681.365L165.288 678.429L166.765 681.041L161.573 683.977ZM151.188 689.848L149.712 687.237L154.904 684.301L156.38 686.913L151.188 689.848ZM140.804 695.72L139.327 693.109L144.519 690.173L145.996 692.784L140.804 695.72ZM130.418 701.593L128.942 698.981L134.134 696.045L135.61 698.657L130.418 701.593ZM120.034 707.464L118.557 704.853L123.749 701.917L125.226 704.528L120.034 707.464ZM109.649 713.336L108.172 710.725L113.365 707.789L114.841 710.4L109.649 713.336ZM99.2644 719.208L97.7878 716.596L102.98 713.661L104.457 716.272L99.2644 719.208ZM91.4768 723.611L90.0002 721L92.5955 719.532L94.0721 722.144L91.4768 723.611Z" fill="#7B8B8A"/>
<path d="M91.1196 496.079L92.5962 493.468L90 492L88.5234 494.611L91.1196 496.079ZM101.504 501.951L102.981 499.34L97.7885 496.404L96.3119 499.015L101.504 501.951ZM111.889 507.823L113.365 505.211L108.173 502.275L106.696 504.887L111.889 507.823ZM122.273 513.695L123.75 511.083L118.558 508.147L117.081 510.759L122.273 513.695ZM132.658 519.566L134.135 516.955L128.942 514.019L127.466 516.631L132.658 519.566ZM143.043 525.438L144.519 522.827L139.327 519.891L137.85 522.502L143.043 525.438ZM153.427 531.31L154.904 528.699L149.711 525.763L148.235 528.374L153.427 531.31ZM163.812 537.182L165.288 534.57L160.096 531.634L158.619 534.246L163.812 537.182ZM174.196 543.054L175.673 540.442L170.481 537.506L169.004 540.118L174.196 543.054ZM184.581 548.925L186.057 546.314L180.865 543.378L179.389 545.989L184.581 548.925ZM194.965 554.797L196.442 552.186L191.25 549.25L189.773 551.861L194.965 554.797ZM205.35 560.669L206.827 558.057L201.634 555.122L200.158 557.733L205.35 560.669ZM215.735 566.541L217.211 563.929L212.019 560.993L210.542 563.605L215.735 566.541ZM226.119 572.412L227.596 569.801L222.404 566.865L220.927 569.477L226.119 572.412ZM236.504 578.284L237.98 575.673L232.788 572.737L231.312 575.348L236.504 578.284ZM246.888 584.156L248.365 581.545L243.173 578.609L241.696 581.22L246.888 584.156ZM257.274 590.028L258.75 587.417L253.558 584.481L252.082 587.092L257.274 590.028ZM267.658 595.9L269.135 593.289L263.943 590.353L262.466 592.964L267.658 595.9ZM278.043 601.772L279.52 599.16L274.327 596.224L272.851 598.836L278.043 601.772ZM288.428 607.644L289.904 605.032L284.712 602.096L283.235 604.708L288.428 607.644ZM298.812 613.515L300.289 610.904L295.096 607.968L293.62 610.579L298.812 613.515ZM309.197 619.387L310.673 616.776L305.481 613.84L304.004 616.451L309.197 619.387ZM319.581 625.259L321.058 622.647L315.866 619.712L314.389 622.323L319.581 625.259ZM329.966 631.131L331.443 628.519L326.25 625.583L324.774 628.195L329.966 631.131ZM340.351 637.002L341.827 634.391L336.635 631.455L335.158 634.067L340.351 637.002ZM350.735 642.874L352.212 640.263L347.019 637.327L345.543 639.938L350.735 642.874ZM361.12 648.746L362.596 646.135L357.404 643.199L355.927 645.81L361.12 648.746ZM371.504 654.618L372.981 652.006L367.789 649.07L366.312 651.682L371.504 654.618ZM381.889 660.49L383.365 657.878L378.173 654.942L376.697 657.554L381.889 660.49ZM392.273 666.361L393.75 663.75L388.558 660.814L387.081 663.425L392.273 666.361ZM402.658 672.233L404.135 669.622L398.942 666.686L397.466 669.297L402.658 672.233ZM413.043 678.105L414.519 675.493L409.327 672.558L407.85 675.169L413.043 678.105ZM423.427 683.977L424.904 681.365L419.712 678.429L418.235 681.041L423.427 683.977ZM433.812 689.848L435.288 687.237L430.096 684.301L428.62 686.913L433.812 689.848ZM444.196 695.72L445.673 693.109L440.481 690.173L439.004 692.784L444.196 695.72ZM454.582 701.593L456.058 698.981L450.866 696.045L449.39 698.657L454.582 701.593ZM464.966 707.464L466.443 704.853L461.251 701.917L459.774 704.528L464.966 707.464ZM475.351 713.336L476.828 710.725L471.635 707.789L470.159 710.4L475.351 713.336ZM485.736 719.208L487.212 716.596L482.02 713.661L480.543 716.272L485.736 719.208ZM493.523 723.611L495 721L492.404 719.532L490.928 722.144L493.523 723.611Z" fill="#7B8B8A"/>
</svg>
