<svg width="91" height="256" viewBox="0 0 91 256" fill="none" xmlns="http://www.w3.org/2000/svg">
<path d="M0.0766267 79.2415C-0.266854 74.8882 0.643663 69.1976 0.851183 65.4453C2.04993 43.7883 3.57184 49.8378 20.2879 40.7336C21.1437 40.2676 23.7373 39.0895 24.1578 38.1148C26.7725 32.053 20.4178 29.4852 19.9513 25.3863C19.2964 19.6945 17.4227 8.87493 21.5676 4.03016C28.1193 -3.62731 42.1095 0.200006 43.8026 10.6819C42.945 14.7833 42.8915 21.5831 43.8564 25.6851C42.0952 28.3511 38.5187 36.0428 42.4078 38.3015C48.0303 41.5668 59.1052 44.3868 63.6938 48.4802C65.8429 50.3974 70.1556 69.5814 70.092 72.6146C70.1232 73.8944 70.1238 75.2085 70.2658 76.4768C70.7126 78.5233 70.5649 79.4267 70.0499 81.467C69.2127 82.1104 68.4112 82.7619 67.501 83.3C66.8885 84.6195 66.49 85.2716 66.2928 86.7251C65.8666 87.8878 65.7747 88.3787 65.0071 89.3124C63.3243 90.7169 62.6018 91.026 60.464 91.551C59.3213 91.7628 58.6132 91.6532 57.4419 91.5799L57.4422 92.7575C57.4428 93.7226 57.5126 96.0019 57.3143 96.8354C57.4267 106.646 58.6782 116.445 58.6865 126.237C58.6873 127.15 56.0915 127.542 55.4615 127.639C55.6386 132.941 56.3167 138.189 56.7026 143.474C57.7542 157.88 58.9097 174.331 62.3219 188.335C65.3234 200.654 69.8218 212.569 73.8823 224.566C75.7085 229.962 76.9882 238.379 81.1515 242.26C83.2951 244.258 90.8829 248.709 90.9765 251.443C91.0074 252.346 90.301 253.042 89.6372 253.559C86.7437 255.812 82.8675 255.295 79.4908 254.754C75.5937 254.13 72.0209 252.557 68.1997 251.807C65.277 251.234 62.1147 251.574 59.2509 250.796C58.3513 250.551 57.0063 250.049 56.3986 249.297C55.8433 248.609 56.0233 247.637 56.2457 246.856C56.8488 244.737 57.9812 242.822 58.6203 240.718C57.9929 238.272 57.5764 236.624 56.6499 234.305C55.8619 232.333 54.1033 229.452 53.485 227.653C52.6003 225.079 52.46 221.943 51.5234 219.109C48.9877 211.438 45.7375 203.92 43.3535 196.225C39.1043 182.51 37.2112 168.164 32.1623 154.678C31.1198 151.893 30.2185 148.705 28.9178 146.055C27.7182 152.771 27.1275 159.61 26.1228 166.364C24.7497 175.594 24.9091 185.097 24.8069 194.42C24.7065 205.32 24.5376 216.219 24.2997 227.117C24.197 231.281 25.0803 245.69 21.4386 247.544C16.0502 250.287 10.2345 254.98 3.81084 253.124C-5.4494 250.569 6.08411 242.108 6.93823 238.041C7.18983 236.843 6.75017 234.861 6.51632 233.626C1.37012 206.474 3.34342 178.525 1.73908 151.032C1.53356 147.508 2.63671 142.483 2.80902 138.886C3.00967 134.14 3.87438 129.824 3.77592 125.059C2.08113 122.367 1.695 121.481 2.98505 118.486C4.08934 115.238 5.89863 110.502 6.50058 107.274C7.54877 101.654 8.06685 94.958 8.52597 89.2428C2.955 86.389 3.79795 84.1284 0.0766267 79.2415Z" fill="#191819"/>
</svg>
