<svg width="92" height="265" viewBox="0 0 92 265" fill="none" xmlns="http://www.w3.org/2000/svg">
<path d="M37.188 0C38.7824 0.368931 38.9548 1.2567 40.1033 2.27821C41.3387 3.37679 43.0724 2.75228 44.7089 2.52266L44.1601 2.68634C49.386 2.54915 49.3249 10.4577 47.9025 13.8234C47.4421 14.9127 46.3116 16.4983 46.1765 17.568C48.4924 20.7284 44.9477 20.1185 43.7203 22.3294L43.9414 22.5302L45.2514 22.4642C44.8429 22.9741 43.8151 23.0845 43.1174 23.2429C40.2365 25.8548 42.5754 28.0141 36.9197 29.9025C34.8405 36.5263 35.2803 36.468 39.9577 40.8777C40.3024 41.2024 41.6763 44.4648 42.1653 45.2413C44.5048 48.9565 46.486 53.0299 47.593 57.2973C50.4943 71.6006 46.2602 86.5112 46.1106 100.995C46.0084 110.893 47.7537 120.192 47.8933 130.011C47.9184 131.778 46.1344 132.314 45.9403 133.551C45.3335 137.422 46.338 141.482 45.5628 145.353C44.6729 150.18 42.4724 154.486 40.7019 158.996C39.7851 161.389 39.8809 164.192 39.4753 166.651C38.3934 173.21 38.3114 177.059 39.5894 183.585C50.5179 189.349 55.5477 195.911 63.55 205.097C66.9549 209.005 71.1607 212.994 74.9463 216.551C78.0962 215.709 86.03 215.002 88.9824 216.244C92.2456 218.784 91.5148 228.567 91.6509 231.962C91.9022 238.239 91.2154 243.531 88.5924 249.04C87.2087 251.945 84.9526 256.349 81.1233 254.262C78.8082 253.002 80.4857 249.5 79.7359 247.448C78.3308 243.316 76.6117 238.523 74.1655 234.929C73.3527 233.731 70.5798 233.673 70.0261 231.467C70.4871 230.625 71.2533 230.344 72.1273 229.865C68.1712 223.209 60.6248 216.421 54.2789 212.091C48.278 207.997 44.1108 205.701 38.9357 200.453C39.295 203.331 39.0421 206.749 38.8624 209.638C37.7024 220.484 34.2003 231.393 34.1185 242.567C34.1119 243.443 33.8355 244.397 34.2946 245.186L35.4315 244.744C37.8676 245.178 41.0128 257.748 40.707 259.978C39.5065 262.52 34.2419 262.351 31.6742 262.33C22.683 262.247 13.8515 265.643 4.85761 264.356C1.70689 263.905 -0.738491 261.614 0.204871 258.277C0.986197 256.042 4.96272 255.851 6.60242 254.638C10.1733 251.995 13.5758 249.943 17.406 247.784C17.9747 246.481 19.12 243.48 19.9903 242.667C20.8066 242.651 20.9639 243.025 21.7388 243.661L22.1794 243.578C25.2004 237.858 22.5363 217.232 22.2366 210.555C22.0338 206.035 22.114 201.149 22.132 196.598C21.3409 195.283 20.7076 194.276 20.1939 192.821C19.7033 191.431 19.3279 188.921 18.7311 187.727L17.2113 187.544C16.7149 186.786 16.2397 183.621 15.9783 182.538C13.9846 174.275 12.795 165.934 11.4018 157.566C10.7121 154.776 8.99908 152.299 8.54819 149.44C8.23444 147.453 8.59002 145.466 8.77245 143.48C8.91966 141.875 9.02689 140.246 9.09175 138.623C6.72554 135.799 6.67735 129.025 6.76049 125.37C6.73507 123.239 8.74888 119.108 8.70943 117.179C8.4857 106.225 11.9311 96.3002 13.6362 85.5673C14.708 78.8216 15.0283 70.9536 16.8555 64.4307C18.2635 59.4034 22.0078 52.7807 24.4842 48.024C21.2128 44.9733 20.751 44.7767 18.7295 40.8546C8.11609 38.556 11.2274 42.3235 9.92815 29.6938C8.97605 29.4874 8.51906 29.4429 7.69114 28.8873C6.92914 27.0379 10.0399 24.7086 10.2292 23.3478C10.4413 20.6246 10.1672 19.0501 11.0513 16.3839C13.8313 8.00233 22.5374 3.52087 31.0957 6.82164C32.4706 5.31864 33.2178 4.16179 34.3536 2.48399C35.5634 1.86928 37.1136 3.04573 38.2833 1.97973C38.1594 0.990526 37.8594 0.891472 37.188 0Z" fill="black"/>
</svg>
