<svg width="93" height="267" viewBox="0 0 93 267" fill="none" xmlns="http://www.w3.org/2000/svg">
<path d="M25.4883 0.102348C37.3975 -0.997564 41.9922 6.9387 47.7491 15.6926C48.003 16.0804 49.4971 15.2262 50.8692 16.8252C51.3624 20.1958 50.4834 28.7567 50.1905 32.5512C52.3096 34.7183 53.4034 36.4669 55.1075 38.9846C64.0333 42.533 64.502 43.8571 68.7549 52.0795C78.296 49.7117 78.4815 55.7744 82.6465 62.3309C87.71 64.5307 88.6671 71.4516 89.3995 76.4129C90.2784 82.3154 88.0127 91.1181 80.8399 91.3638C76.8409 91.5011 74.4581 88.5041 71.8702 85.9316C70.6299 91.0561 67.7735 105.473 68.1104 110.063C68.7745 119.128 76.2354 118.517 72.0704 129.892C71.5919 131.211 76.3135 150.943 75.7911 155.612C75.7813 162.172 77.4366 170.68 76.9971 176.961C75.5616 197.514 81.8653 215.502 85.6397 235.298C86.0938 237.691 84.253 240.001 83.6524 242.453C81.0987 252.9 87.8516 256.5 92.041 264.002C89.0088 270.576 75.9229 264.661 71.7432 262.19C71.8506 256.719 72.6416 252.026 70.8204 246.331C70.6055 244.91 67.6514 244.968 67.3145 244.387C65.4981 241.271 63.6817 231.097 62.9346 227.976C60.8203 219.263 58.5889 210.579 56.2305 201.929C53.291 191.794 51.4258 179.364 47.0557 170.48C46.2744 177.152 46.6651 184.405 45.9619 191.125C45.4492 195.98 43.4522 201.04 43.3302 205.914C43.0616 216.469 43.8574 227.063 44.0137 237.574C43.2227 238.848 42.2218 240.265 41.377 241.53C42.1241 247.103 42.6123 252.998 43.3448 258.483C44.5996 267.865 31.7286 267.631 27.6856 264.363C26.3624 260.505 30.7959 257.916 30.7276 255.342C30.6348 251.889 29.8829 249.359 29.8829 245.222C19.2969 233.642 23.1006 194.847 20.9522 179.34C19.126 166.162 11.1768 156.057 8.90144 143.334C7.84675 138.01 9.89753 130.537 9.51179 125.526C8.29597 109.755 8.85746 104.72 14.7852 90.3562C5.19046 89.4902 -0.532168 87.2054 0.0391206 76.0114C0.683652 63.3742 1.23539 57.1938 6.79692 45.4928C9.84379 39.0848 11.4991 27.9757 13.7598 20.9758C14.0918 19.9516 12.3145 14.8359 12.3194 13.4757C11.9239 4.79357 17.8663 1.10995 25.4883 0.102348Z" fill="black"/>
</svg>
