<svg width="81" height="267" viewBox="0 0 81 267" fill="none" xmlns="http://www.w3.org/2000/svg">
<path d="M45.8604 0.0517578C48.033 -0.150864 49.8986 0.245967 51.9053 1.1709C62.6862 6.15189 58.3702 23.0327 60.0742 28.3154C63.9317 38.3469 77.3936 45.7346 78.2822 57.375C79.5956 74.5002 76.7246 91.3 80.1621 108.641C81.1579 113.676 77.5402 126.155 79.6934 131.518C77.2471 138.018 75.997 140.553 72.4375 146.287C72.8623 153.857 71.6612 162.556 72.0908 170.938C71.9639 179.543 74.1367 187.48 75.2695 195.886C76.9297 208.189 74.8105 221.621 72.2373 233.636C70.9629 239.594 70.3964 253.612 67.1201 257.769C61.0463 260.943 57.8132 256.992 52.1787 256.054C48.8975 255.507 42.7499 256.01 39.2246 256.234C38.9561 259.057 38.9755 262.135 37.418 264.44C34.0234 266.35 17.5305 266.555 12.916 266.579C10.2835 266.56 -0.0966569 266.97 0.000976562 263.233C3.13588 259.155 15.3378 256.024 19.0439 252.815C30.2059 243.159 32.8428 224.184 36.2363 210.66C37.7205 204.755 34.127 198.138 33.3457 190.797C32.0566 178.743 35.997 163.689 30.7383 152.993C27.8869 147.191 28.1797 138.355 28.4092 132.548C27.1447 131.205 25.9238 129.559 25.8311 127.562C25.2988 116.357 25.0987 96.3102 26.1826 85.4932C27.1104 76.1772 36.827 61.4853 35.2402 50.8428C37.125 46.1824 39.337 43.5689 42.2959 39.5664C39.3127 38.4671 35.5184 38.1301 32.8916 36.9678C30.6946 35.9949 30.455 29.4436 29.5859 26.4951C25.0311 23.7793 29.6055 22.6249 30.7627 18.9951L29.7715 17.2764C30.167 6.02634 35.2503 1.48971 45.8604 0.0517578Z" fill="black"/>
</svg>
