<svg width="113" height="247" viewBox="0 0 113 247" fill="none" xmlns="http://www.w3.org/2000/svg">
<path d="M46.3871 36.5791L47.2057 35.8862C47.5005 34.0877 46.1924 33.5854 45.348 32.2258C41.2606 25.6418 37.9374 16.0914 40.5021 8.42029C42.6775 1.90846 50.7578 -1.70029 57.0149 0.794672C62.1757 2.85275 63.8359 6.68685 65.227 11.6064C65.29 11.7435 65.3529 11.8803 65.4159 12.0174C66.1458 15.5398 65.7536 20.3794 64.3482 23.69L63.7243 24.5527C63.5697 27.1826 63.5439 30.1681 65.7909 32.0085C75.0992 34.8443 105.975 53.493 111.654 62.6888C113.251 65.2729 111.434 71.2292 110.343 74.2177C105.815 86.6185 97.663 99.7089 86.5543 107.053C87.5618 116.729 90.0578 127.452 91.2027 137.248C91.7065 141.556 92.6511 145.648 92.5308 150.055C87.1611 153.552 83.3971 152.154 79.2439 155.265C78.5054 162.153 77.1486 167.671 78.1762 174.608C78.0818 179.211 77.9701 183.656 78.4968 188.23C78.0503 198.219 72.2197 213.544 70.7771 223.829C69.8153 230.689 70.9631 235.866 70.7828 242.37L70.7685 242.779C68.6418 244.127 59.4536 246.131 57.6246 244.326C55.4292 242.157 58.2972 233.193 58.6608 230.192C59.0329 227.154 60.7074 223.477 60.9678 220.327C61.6204 215.579 60.3953 211.693 60.4898 207.501C60.4841 202.518 61.8236 195.654 61.3027 190.85C60.1177 179.922 59.4479 167.755 57.699 156.962C54.9455 156.762 52.1805 156.765 49.4212 156.734C46.0837 161.916 44.226 166.368 41.7443 171.939C40.7339 174.208 38.4183 177.373 37.7829 179.693C37.0244 182.464 37.0358 186.673 36.8583 189.601C36.5721 194.36 36.5005 199.576 35.6504 204.284C34.5913 210.16 33.0686 216.295 31.7233 222.127C31.0277 225.15 29.8027 228.068 29.505 231.273C29.1672 234.914 30.8217 237.752 30.9648 241.188C31.0535 243.282 30.0345 244.31 28.6205 245.649C25.4462 246.474 3.62656 247.483 0.443642 246.225C-0.123102 245.401 0.0801455 245.862 0 244.72C1.21363 241.759 9.93803 240.309 13.224 237.747C15.8287 235.716 18.1701 233.627 18.9086 230.122C19.8589 225.184 19.4009 219.667 19.4296 214.632C19.4983 201.805 18.6252 189.239 20.5716 176.496C20.9838 173.795 19.69 169.303 20.2625 166.157C21.0697 161.705 23.1248 158.283 24.3242 153.976C25.1743 150.136 25.4405 146.283 26.2877 142.299C23.4912 136.121 25.7496 125.512 26.1389 118.657C26.657 109.547 27.6702 100.325 28.3314 91.2C28.8094 84.6309 31.1136 77.8406 29.9257 71.1565C29.6395 69.4694 29.6481 67.3939 29.6424 65.6708C29.6624 64.7448 29.8427 63.7894 29.9773 62.8646C30.7243 60.1522 31.5172 56.0224 31.9237 53.2694C32.1641 51.9734 32.3358 51.0222 32.4417 49.7121C32.6965 48.8122 33.1001 47.7131 33.4035 46.8074C35.0951 42.9347 36.4089 41.0802 40.379 39.3679C41.7816 38.9245 42.2968 38.5882 43.582 37.8417L46.3871 36.5791ZM76.31 82.7177C77.0284 83.6663 78.1447 85.0305 78.6743 86.2874C80.8897 91.5406 78.6199 101.705 88.037 96.0082C88.472 95.7462 88.9901 94.9949 89.3107 94.5361C91.28 90.1864 93.9706 84.971 95.3588 80.5175C96.4351 77.0635 96.8272 72.3355 97.7288 68.795C95.1756 66.958 83.6318 59.752 80.7294 58.4966C77.0027 62.6696 77.2059 64.2617 75.2967 69.4047C76.8681 73.734 75.9436 78.1689 76.31 82.7177Z" fill="#191819"/>
</svg>
