<svg width="86" height="249" viewBox="0 0 86 249" fill="none" xmlns="http://www.w3.org/2000/svg">
<path d="M35.9191 14.3572C35.8914 11.8613 35.5656 8.8272 36.4424 6.46004C37.3208 4.08716 39.1524 2.26386 41.4323 1.21052C44.4054 -0.160537 48.2721 -0.441039 51.3477 0.752556C60.4445 4.28468 56.6127 12.1303 58.6684 16.7587C60.64 21.1954 56.5927 22.8727 55.2485 26.5136C54.5043 28.5287 54.7081 30.8042 54.7745 32.9138C57.4436 34.7944 59.1502 37.7025 61.7606 39.6718C64.9001 42.0389 68.9586 43.1466 72.1495 45.571C77.5539 49.6785 80.7391 65.9996 83.2605 72.8806C83.93 75.3022 85.3171 82.8129 85.6139 85.3833C85.5593 88.0109 85.8609 91.752 85.494 94.4025C84.3848 102.411 80.519 110.503 78.4297 118.36C77.7225 121.019 74.2785 122.817 73.9553 126.827C73.2666 135.38 72.6352 143.655 72.2915 152.21C70.5612 168.403 72.0304 184.186 71.4685 200.384C71.3314 204.334 71.263 208.656 70.8408 212.551C70.3668 216.75 69.5926 220.909 68.5243 224.997C67.8454 227.493 67.0766 229.874 66.389 232.542C65.6852 235.075 66.8464 244.796 63.6509 245.508C54.6434 247.286 53.0196 245.68 54.5095 237.05C56.0694 228.014 54.4116 217.749 54.9792 208.53C55.6441 197.73 56.9983 187.014 56.1991 176.234C55.3862 165.265 51.8858 155.098 48.2387 144.843C42.901 154.454 41.2863 167.352 38.9927 178.132C37.5908 184.721 36.0394 192.028 35.0813 198.652C34.2836 206.194 33.7856 213.379 33.0016 220.972C32.3804 226.989 32.8032 233.678 31.2899 239.569C31.0185 240.625 33.8107 245.588 30.3868 246.247C28.2833 246.653 25.9914 246.026 23.8441 246.273C20.9712 246.708 18.9724 246.553 15.9878 247.658C12.525 248.937 0.84147 248.76 0.044309 244.089C-0.729381 239.552 8.8606 240.877 10.7306 237.852C11.6159 236.418 13.3004 234.322 13.5663 232.181C14.1908 229.954 14.2913 227.521 14.7327 225.4C16.3988 219.083 16.3791 211.813 17.5913 205.602C21.3727 186.235 21.7763 168.285 21.2717 148.658C21.1008 143.892 24.6785 132.246 23.571 128.001C20.9153 117.825 7.87137 101.132 8.10379 90.4125C8.35396 78.8601 9.67979 49.7901 20.1082 42.7602C25.5509 39.0936 31.257 39.4743 38.0373 31.995C40.4116 22.0798 31.6414 20.5141 35.9191 14.3572Z" fill="#191819"/>
</svg>
