<svg width="99" height="258" viewBox="0 0 99 258" fill="none" xmlns="http://www.w3.org/2000/svg">
<path d="M38.0649 28.9454C38.4776 18.6925 39.3206 -0.499552 53.3789 0.00994479C69.1003 0.582413 66.8723 31.8936 67.992 41.7228C70.5183 42.7304 76.3132 44.6625 78.2 46.2511C82.4623 49.8461 86.3597 57.3913 88.4635 62.4948C90.7562 68.0449 100.451 85.8487 97.7604 91.31C95.1614 96.5824 83.9038 109.466 78.3463 112.589C77.2783 113.187 74.7077 112.749 73.4445 112.529C73.8089 116.945 74.3914 121.433 75.1247 125.807C75.8958 130.407 77.2222 135.032 77.5365 139.698C78.3466 151.708 77.4896 163.922 79.1369 175.892C80.2698 182.727 83.4083 189.202 84.7739 195.969C86.8062 206.03 87.1153 216.377 88.8929 226.493C89.4338 229.578 90.2038 230.474 87.0695 231.857C87.8109 238.059 89.4138 251.386 85.0602 256.106C70.247 261.782 75.528 247.68 77.0677 240.017C77.5225 237.753 77.6241 235.017 77.7612 232.684C75.8323 232.544 74.4363 232.389 72.5372 231.931C72.87 223.942 70.7353 208.357 69.2157 200.242C67.8452 192.923 65.5536 185.95 63.6467 178.769C61.7982 171.808 53.962 138.945 50.3835 135.364C49.6525 134.634 48.4188 134.211 47.3912 134.268C46.2872 134.328 45.3764 134.943 44.7049 135.794C42.1251 139.06 37.3633 165.416 35.8025 171.544C32.7028 183.715 28.3452 195.419 26.3802 207.893C25.6457 212.553 25.3795 217.496 25.0982 222.21C24.9485 224.715 25.5902 230.033 24.6502 232.051C24.0551 233.328 21.5875 233.889 20.3478 234.298C20.4369 238.912 20.4535 243.506 20.9338 248.095C21.086 249.552 21.2549 251.077 21.0471 252.54C20.2677 256.876 12.8843 257.907 10.3586 254.595C8.37553 251.953 8.8587 248.647 9.03072 245.484C9.2683 241.7 9.75804 237.933 10.1072 234.158C10.2435 232.775 9.25713 231.965 9.35531 230.528C9.98388 221.337 11.3295 212.244 11.9606 203.056C12.1301 200.588 13.0274 197.66 13.3111 195.121C14.2256 186.938 17.8218 179.421 18.2795 171.135C19.1711 162.368 18.453 153.477 18.8503 144.695C19.1809 137.388 20.9429 129.897 21.87 122.621C22.2842 119.372 22.9297 116.112 23.3333 112.852C23.5122 111.404 23.7328 109.663 24.0563 108.249C20.9037 108.739 18.5408 108.859 15.9556 106.595C10.7619 102.044 -1.57282 89.8903 0.166628 82.2965C0.500949 81.1945 1.08889 80.0495 1.59953 79.0191C3.57397 76.8008 5.22239 74.4565 6.9375 72.0407C7.32134 71.2822 8.30227 70.0113 8.83065 69.2814C9.85509 67.9934 10.5718 66.7883 11.4305 65.4001C12.0419 64.4527 12.6301 63.4881 13.1951 62.512C13.6193 61.6018 15.9788 57.9065 16.6334 56.836L18.7029 53.8534C20.5476 50.8279 20.8568 50.7621 22.9182 48.0543C23.5239 47.1842 24.6917 46.1079 25.4751 45.3323C27.1642 43.8667 30.4164 42.6216 32.6756 42.5901C33.5447 43.0366 35.6247 42.8563 36.8919 43.0309C37.0539 42.2695 37.4795 41.0674 37.7257 40.2917L37.9838 37.6297L38.0749 37.0029C38.0228 34.3609 38.0649 31.5987 38.0649 28.9454ZM11.1806 82.9863C9.88227 87.6662 17.2279 98.4458 21.2532 101.093C25.9952 94.7133 25.7917 95.9098 31.5118 91.5132C32.2869 87.277 31.6833 67.7157 27.6983 65.9096C25.5625 66.1272 23.6753 70.1688 21.9945 71.557C18.9819 74.0472 16.2163 76.2026 13.6368 79.1794C12.7197 80.2356 11.7837 81.7211 11.1806 82.9863ZM80.7232 99.8426C81.8718 98.2769 87.5533 89.8845 87.9082 88.6766C89.0274 84.8812 82.3673 74.9002 79.5628 72.0894C77.9441 70.4664 76.9065 67.8045 74.8279 66.7282C70.9388 74.8372 69.3814 91.0209 72.5638 99.7883C74.6573 105.559 77.8084 103.131 80.7232 99.8426Z" fill="#191819"/>
</svg>
