<svg width="79" height="255" viewBox="0 0 79 255" fill="none" xmlns="http://www.w3.org/2000/svg">
<path d="M27.3897 33.2332C27.5958 31.6103 27.6215 30.2392 27.7131 28.519C27.8763 25.3847 25.947 24.8866 24.5989 22.634C23.3881 20.6132 25.054 17.7394 25.2486 15.896C25.4805 13.6863 24.639 11.7456 25.2372 9.53304C27.3353 -4.28347 45.9834 -2.5317 46.0235 11.2362C46.0263 12.3725 46.2926 16.7433 46.6475 17.5447C48.7713 22.3449 44.246 24.2025 44.2345 28.539C44.2345 29.0542 44.4406 30.6142 44.8614 31.0979C50.9296 35.5546 58.6922 38.374 64.3997 43.4861C66.286 45.172 67.5512 49.248 68.2209 51.6409C72.8179 68.0278 72.0765 86.4384 68.3984 102.917C66.0999 113.216 61.2941 117.936 61.1653 128.695C61.0393 139.429 62.8741 145.772 64.2709 156.239C65.3843 164.552 66.5092 173.519 67.3393 181.877C67.5798 184.27 67.3193 190.207 67.3909 193.101C67.3737 194.306 67.4023 195.926 67.2535 197.088L65.5103 221.601C65.2241 225.382 63.8015 232.143 64.2223 235.838C64.3654 237.12 69.4088 242.361 70.236 243.652C71.6128 245.802 78.0932 249.177 78.7858 250.989C77.618 254.738 70.0671 254.618 66.9586 253.559C64.2537 252.64 61.6862 250.983 58.967 250.047C56.0245 249.013 52.8788 248.787 50.0165 247.869C49.9163 243.498 49.6129 242.181 48.4593 237.948C49.3123 235.123 50.9152 231.548 50.7406 228.648C50.5288 225.213 49.9163 219.165 48.5853 216.099L48.4135 213.801C48.6482 210.406 49.4526 207.355 49.3925 203.754C49.5384 202.38 49.6272 201.064 49.7188 199.69L49.5871 198.923C49.6844 197.732 49.7732 196.538 49.8533 195.345C49.59 186.28 48.9259 169.747 44.3118 161.944C40.3675 155.266 37.3592 152.152 34.431 144.275C32.788 162.768 32.5018 180.111 34.6228 198.565C35.055 202.329 35.2182 208.861 37.1531 212.356C37.3134 213.312 37.5395 214.448 37.6597 215.395C37.3907 219.938 37.4765 224.329 37.3334 228.845L37.2962 229.816C36.635 234.71 36.718 237.693 34.8947 242.247C30.9504 242.951 29.5393 243.014 25.8755 244.823L24.639 245.733C21.6192 246.417 18.983 248.072 15.4136 247.625C14.3345 247.554 12.2279 247.187 11.6439 246.057C9.76051 242.422 15.1417 239.184 17.214 237.805C18.0441 237.367 19.0917 236.585 19.8818 236.033C22.4722 234.874 23.6944 230.411 23.2994 227.752C23.0017 227.045 22.8758 225.937 22.7441 225.136C22.6296 222.803 21.4961 217.267 21.0324 214.797C19.8245 208.612 18.6939 202.412 17.6434 196.198C14.8039 178.514 12.6887 160.252 10.0668 142.4C7.79408 141.922 5.47273 141.37 3.7725 139.664C2.32988 138.209 1.70591 136.134 1.46261 134.148C1.00177 130.392 2.08086 126.626 1.91198 122.859C1.51411 114.1 0.128732 105.313 0.00565129 96.5682C-0.100255 89.046 1.30804 81.5695 2.07515 74.1017C2.89092 66.1558 2.4816 58.1585 5.22086 50.4988C6.36293 47.3045 8.68714 44.1273 11.3234 42.0034C15.1446 38.9293 24.8508 35.9296 27.155 33.4937C27.2351 33.4078 27.3124 33.322 27.3897 33.2332ZM56.5655 115.915C60.464 109.973 60.0661 100.636 60.8962 93.6944C61.2683 90.5945 62.4619 80.3903 60.1606 78.358C59.5795 80.4561 55.6038 115.096 55.8442 115.6L56.5655 115.915Z" fill="#191819"/>
</svg>
