<svg width="75" height="252" viewBox="0 0 75 252" fill="none" xmlns="http://www.w3.org/2000/svg">
<path d="M16.0205 46.2782C6.96979 36.2285 11.7986 5.86482 25.7496 0.815654C31.4027 -1.23092 38.1693 0.626743 41.4867 5.79327C45.577 12.1648 46.908 19.7386 48.9117 26.9202C49.9135 30.6183 51.0355 34.0131 52.3236 37.6483C59.8029 38.2951 62.0469 40.1614 63.9303 47.6035C65.8109 55.0312 65.5447 62.7538 66.0113 70.3476C66.2918 74.9216 66.7355 79.5185 66.558 84.1126C66.4091 85.1516 66.2517 86.2222 65.6105 87.1066C64.042 88.8498 63.2091 89.3621 61.0881 90.384C61.3943 92.9372 61.6805 95.4933 61.9496 98.0522C62.4791 99.7896 62.5507 100.849 62.7453 102.626C63.5897 106.688 63.7071 112.058 64.5944 116.572C63.0201 117.671 62.5936 117.905 60.8819 118.698C60.6157 123.143 59.5395 131.854 59.8572 135.844C60.8877 148.704 65.0123 161.668 65.7536 174.674C66.3204 181.804 67.4625 189.083 67.909 196.276C68.6418 208.109 66.6725 219.996 67.6714 231.789C67.8546 233.939 69.7924 237.385 70.6196 239.369C72.9896 245.274 78.6771 247.005 71.3667 251.634C63.6556 251.96 63.043 248.474 57.2067 244.092C55.85 243.075 55.9072 241.939 55.8385 240.376C55.5694 228.541 53.915 216.564 52.3579 204.835C49.6645 184.521 43.2872 163.485 33.3463 145.515C32.5763 143.787 31.8492 142.041 31.1594 140.28C31.0907 143.008 30.8045 143.79 30.2578 146.426C28.2799 155.551 27.4212 165.632 26.8917 174.966C26.6827 178.701 25.4433 182.878 25.2974 186.584C25.1313 190.792 25.3145 195.217 25.2974 199.462L25.0169 221.943C24.9453 229.857 25.4863 238.37 25.0197 246.238C24.8766 248.654 23.3767 250.226 21.4332 251.551C8.12332 252.913 9.84073 246.393 14.0341 237.085C11.8243 226.754 10.147 216.315 9.01064 205.811C8.65571 202.616 8.27215 199.574 8.07465 196.356C7.76265 191.316 9.59742 185.396 9.15949 180.533C8.59274 174.253 7.69109 167.807 6.92685 161.545C5.52144 150.776 4.3479 139.977 3.40619 129.157C2.47879 128.13 1.71739 127.52 0.666912 126.636C1.0476 122.932 2.73067 120.052 2.39864 116.603C2.25839 115.137 1.17928 114.617 0 113.821C1.33957 104.547 6.19411 102.317 7.5251 93.7959C7.73691 92.4477 6.92113 88.2372 6.79233 86.517C6.0567 76.5274 3.92425 66.0398 6.99841 56.2449C8.66429 50.9266 11.3177 48.6511 16.0205 46.2782Z" fill="#191819"/>
</svg>
