<svg width="77" height="257" viewBox="0 0 77 257" fill="none" xmlns="http://www.w3.org/2000/svg">
<path d="M29.8428 16.678C26.6971 2.72409 35.9167 -4.63498 48.2419 3.19066C48.9976 3.67153 50.6377 4.3184 51.6166 4.77923C55.4693 6.60254 54.3473 23.9455 52.8245 26.1838C48.8859 31.96 49.5328 32.1375 55.0714 38.1112C63.5125 46.8327 75.729 51.6386 76.0581 65.6698C76.5333 86.124 72.0251 105.894 64.5973 124.826C59.0787 138.886 57.8307 158.787 56.4769 173.746L52.3093 215.923C55.3806 216.229 58.5664 216.996 58.6637 220.703C58.9299 230.853 60.4584 241.128 59.4222 251.278C59.2447 253.01 58.5234 256.714 56.328 256.436C53.1107 254.12 52.8531 246.421 49.925 243.398C48.5081 241.936 47.1056 240.313 45.4568 239.116C45.122 239.191 44.976 239.119 44.8328 239.477C43.3044 243.347 48.8001 248.842 43.2414 250.783C39.2656 252.171 18.8514 256.702 17.1941 252.105C17.861 248.685 24.204 245.247 26.033 242.866C28.7408 239.342 31.6661 231.259 33.1488 226.894C30.0832 222.328 27.5071 216.919 23.9778 212.697C20.9753 209.107 20.7577 205.919 18.2217 202.369C15.9146 199.201 13.4416 196.155 10.8168 193.244C7.62817 189.718 3.10853 185.379 0.827242 181.225C-0.47226 178.861 0.0143624 174.502 0.566794 171.837C2.71355 161.455 6.2428 151.254 8.93054 140.984C9.99247 136.922 11.2834 132.863 11.9446 128.719C0.821542 110.128 4.67709 93.5203 6.26855 73.1891C6.56051 69.4395 7.8543 64.7939 8.00315 61.2847C8.16344 60.0195 8.33803 58.7544 8.52694 57.4949C9.28832 55.1965 9.80641 52.732 10.5707 50.3448L11.7585 47.783L14.3661 43.4924L16.5787 42.4906C21.2644 40.5613 26.0473 37.9566 29.1301 33.8807L30.2521 32.3751C30.7301 29.5041 30.2206 26.5588 29.07 23.9111C28.7465 20.7511 28.403 19.5432 29.8428 16.678ZM22.4808 176.54C24.6305 180.361 28.675 185.882 31.5029 189.34C32.9341 191.215 34.0447 192.534 35.7077 194.232C35.6419 188.484 34.7689 158.687 31.5402 155.65C27.4127 162.008 24.6619 169.304 22.4808 176.54ZM15.0874 117.959C16.1723 118.663 17.1397 119.339 18.3018 119.905C18.4707 116.977 19.2006 101.438 17.9326 99.9062C14.6724 104.907 13.1525 109.008 12.623 115.039C13.4616 116.104 14.1314 116.989 15.0874 117.959Z" fill="#191819"/>
</svg>
