<svg width="116" height="267" viewBox="0 0 116 267" fill="none" xmlns="http://www.w3.org/2000/svg">
<path d="M53.5102 0.0106748C71.0941 -0.531955 68.8246 19.7392 68.7333 31.9692C76.1098 38.6541 85.8949 40.3064 90.0624 48.9568C93.6122 56.325 97.9945 68.7024 101.044 76.6607C101.871 78.818 100.622 84.5779 99.9921 86.8554C97.8471 94.6051 93.3393 96.9685 86.6606 100.412C88.0605 103.389 96.205 117.472 96.0585 118.919C92.3207 122.11 102.212 132.399 99.0111 137.983L97.205 137.415C96.3402 139.216 97.9457 142.934 96.6913 144.886C95.6698 146.476 92.9208 145.857 90.8681 146.188C91.6278 150.215 94.184 152.807 95.0072 156.328C97.0253 164.958 97.0365 174.541 98.6645 183.28C99.3798 187.12 102.154 190.948 102.955 195.45C106.442 215.04 105.935 233.339 109.599 253.093C126.663 267.03 99.7406 267.079 95.5253 258.654C91.1586 249.926 92.9101 237.785 86.121 228.13C84.6332 226.014 83.7099 209.667 82.2841 205.695C78.6772 195.647 73.1019 187.39 68.413 177.894C65.6415 172.197 62.0829 165.619 58.268 160.89L57.267 159.994L56.6815 160.55C53.4262 187.346 55.2738 209.109 64.7675 234.614C65.1937 235.76 68.2221 238.67 69.3715 240.993C63.5614 254.724 66.1635 266.991 46.7421 266.566C43.809 264.808 42.8881 263.636 40.8398 261.048C42.2328 257.197 47.7142 249.514 50.1996 245.476C47.8778 235.052 42.7045 230.232 39.3231 220.382C35.8163 210.165 34.6161 197.924 31.9618 187.992C28.2064 173.94 21.9491 155.753 20.6601 141.267C19.8192 131.82 21.6181 112.1 22.4784 102.417C22.0478 102.342 21.6181 102.261 21.1898 102.175C17.3314 101.369 3.02088 98.4699 0.871468 95.3401C0.322152 94.4009 -0.0953152 92.5747 0.0189426 91.5515C1.55703 77.785 3.17566 69.2563 9.10633 56.6347C16.4496 41.0059 22.9354 38.9364 37.1796 31.0231C36.6425 28.604 35.7201 25.2178 35.8617 22.7103C35.5346 21.4448 37.8744 20.254 37.8539 20.3498C40.1674 9.63539 41.4423 2.83665 53.5102 0.0106748Z" fill="black"/>
</svg>
