<svg width="105" height="267" viewBox="0 0 105 267" fill="none" xmlns="http://www.w3.org/2000/svg">
<path d="M48.6807 0C53.4287 0.240461 54.8934 3.12296 55.8604 6.69434C53.2513 6.89094 50.4332 7.04223 48.3584 6.78516C43.4072 8.57465 30.1479 9.79046 29.4531 17.418C30.8372 21.64 40.6521 30.1319 44.4043 33.71L49.708 38.4141C52.1285 27.5264 52.8984 18.9696 57.6816 9.60645C68.0895 1.76154 79.6317 3.35493 85.6826 16.3057C88.9727 23.3504 88.8209 31.5825 90.7793 39.0479C93.3988 49.0467 97.718 58.454 100.44 68.3818C103.31 78.9856 101.292 86.7401 101.209 97.2803C101.253 103.285 102.281 109.378 102.359 115.368C102.545 129.718 101.821 143.399 104.896 157.524C105.444 160.051 103.813 165.821 100.386 166.373C95.7737 163.33 100.073 161.603 94.6084 156.941C94.0013 153.944 93.2179 150.778 93.8984 147.775C96.1555 137.8 91.8422 128.888 88.5176 119.443C88.5861 130.301 89.1143 143.473 87.6992 154.086C86.4653 163.338 82.9989 172.374 82.6807 182.133C82.338 192.763 85.3101 202.106 86.1572 212.569C86.7007 219.334 85.7268 226.307 85.6533 233.086C85.5995 238.156 86.1086 243.413 86.4023 248.503L81.7412 250.757C81.6825 254.646 83.2339 261.397 80.5605 264.186C75.904 265.711 62.102 259.977 64.4277 254.877C65.9504 253.588 67.6246 253.457 69.6318 253.023C69.6759 252.675 69.7303 251.87 69.8037 251.563C70.7241 247.598 69.2308 243.739 68.7607 239.772C68.3838 236.564 68.2904 233.056 67.791 229.837C66.1165 222.109 64.8432 218.456 64.6768 210.441C64.3781 203.817 62.7968 200.622 61.0635 194.356C60.1577 191.081 59.7706 186.213 59.3643 182.748C57.0729 194.391 57.244 210.093 56.2402 222.146C55.6233 229.553 54.6685 236.885 53.7578 244.261C53.3319 247.718 53.3368 253.973 52.6709 256.976C51.8241 257.229 51.4271 257.335 50.5654 257.454L49.8555 257.549C49.2827 258.417 49.6797 265.271 49.6699 266.996C45.6059 267.077 27.3241 266.028 27.5508 260.696C29.9818 257.688 33.6636 257.141 37.4336 256.023C37.8841 245.109 35.0741 242.096 35.1377 234.822C35.265 220.371 35.4901 205.19 35.1816 190.711C34.976 181.063 32.0085 168.428 29.9814 158.865C15.5128 164.031 3.31839 154.251 0 140.286C2.10739 133.174 17.6713 110.441 23.0068 106.671C26.8906 91.9824 34.7209 72.398 29.7021 57.416C29.0656 55.5116 25.9449 51.0528 25.0166 48.8936C22.0323 41.9064 18.6024 34.925 15.4648 28.0195C7.34032 10.1383 27.4051 6.46787 39.8477 3.03223C42.4721 2.30644 46.0073 0.909145 48.6807 0ZM27.7207 118.08C25.5885 120.64 24.663 122.889 26.3135 125.952L28.1396 127.108L28.9395 126.573C29.3605 123.879 29.0034 121.381 28.4795 118.724L27.7207 118.08ZM29.8643 94.6934C28.6695 97.9329 25.9228 104.647 26.1133 107.809C27.7839 110.673 27.861 110.527 25.4844 113.193C26.7458 113.901 27.505 114.672 28.6055 114.377C29.193 111.799 30.3 96.9951 29.8643 94.6934Z" fill="#121212"/>
</svg>
