<svg width="105" height="267" viewBox="0 0 105 267" fill="none" xmlns="http://www.w3.org/2000/svg">
<path d="M48.5459 0C54.8252 0.318447 55.3477 5.27693 56.5879 10.3271C67.2031 1.67389 79.2295 2.96117 85.4453 16.2842C88.7264 23.3197 88.5752 31.5415 90.5283 38.9971C93.1406 48.9826 97.4473 58.3773 100.162 68.292C103.023 78.8816 101.012 86.6253 100.929 97.1514C100.973 103.149 101.998 109.234 102.076 115.216C102.262 129.546 101.539 143.209 104.605 157.315C105.152 159.839 103.526 165.601 100.108 166.152C95.5091 163.114 99.7956 161.389 94.3467 156.734C93.7412 153.74 92.96 150.579 93.6387 147.58C95.8896 137.617 91.5879 128.717 88.2725 119.285C88.3408 130.128 88.8681 143.283 87.457 153.882C86.2266 163.121 82.7695 172.145 82.4521 181.892C82.1104 192.508 85.0742 201.839 85.9189 212.288C86.4609 219.044 85.4893 226.008 85.416 232.778C85.3623 237.841 85.8701 243.091 86.1631 248.174L81.5146 250.425C81.4561 254.309 83.0036 261.051 80.3379 263.836C75.6944 265.36 61.93 259.633 64.249 254.54C65.7676 253.253 67.4375 253.121 69.4395 252.688C69.4834 252.341 69.5371 251.536 69.6104 251.23C70.5281 247.27 69.0391 243.417 68.5703 239.456C68.1943 236.252 68.1016 232.747 67.6035 229.532C65.9336 221.815 64.6641 218.167 64.498 210.163C64.2002 203.548 62.623 200.357 60.8945 194.1C59.9912 190.829 59.6055 185.967 59.2002 182.506C56.915 194.134 57.0859 209.815 56.085 221.852C55.4697 229.249 54.5176 236.572 53.6094 243.938C53.1846 247.391 53.1894 253.636 52.5254 256.635C51.6807 256.888 51.2852 256.994 50.4258 257.113L49.7178 257.208C49.1465 258.074 49.542 264.92 49.5322 266.643C45.4794 266.723 27.2486 265.676 27.4746 260.352C29.8989 257.347 33.5704 256.801 37.3301 255.685C37.7793 244.785 34.9767 241.776 35.04 234.512C35.167 220.08 35.3916 204.918 35.084 190.459C34.8789 180.824 31.9199 168.206 29.8984 158.655C15.4699 163.814 3.30923 154.047 0 140.101C2.10152 132.998 17.6213 110.295 22.9424 106.529C26.8154 91.8602 34.625 72.302 29.6201 57.3398C28.9853 55.438 25.8742 50.9855 24.9482 48.8291C21.9722 41.8511 18.5518 34.8789 15.4229 27.9824C7.32048 10.1246 27.3291 6.45943 39.7373 3.02832C42.3545 2.30351 45.8799 0.907956 48.5459 0ZM27.6445 117.924C25.5181 120.481 24.5954 122.726 26.2412 125.785L28.0625 126.94L28.8604 126.405C29.2802 123.715 28.9238 121.22 28.4014 118.566L27.6445 117.924ZM29.7822 94.5684C28.5908 97.8036 25.8522 104.508 26.042 107.666C27.708 110.527 27.7842 110.381 25.4141 113.044C26.6721 113.751 27.4291 114.521 28.5264 114.227C29.1123 111.653 30.2168 96.8671 29.7822 94.5684ZM54.6689 12.0586C51.9346 12.2501 47.9258 12.6798 45.3135 12.3643C41.1386 13.8353 29.957 14.8343 29.3711 21.1045C30.5386 24.5753 38.8145 31.5549 41.9785 34.4961L46.4512 38.3633C48.7216 28.4076 49.2686 20.8221 54.6689 12.0586Z" fill="black"/>
</svg>
