<svg width="81" height="267" viewBox="0 0 81 267" fill="none" xmlns="http://www.w3.org/2000/svg">
<path d="M41.7773 0.0534514C44.165 -0.069141 47.2607 -0.0583962 49.4922 0.949694C58.0029 4.7862 54.082 15.8122 58.247 22.1982C59.5068 24.1338 53.5742 30.7484 52.5537 32.4755C50.2197 36.4263 47.8174 40.0874 44.9902 43.7056C50.9912 47.0132 54.585 49.6491 57.4365 56.1788C59.375 60.6082 62.6465 86.759 61.6602 89.0252C60.5908 89.3398 60.2929 89.3217 59.4677 90.0714C59.9511 94.3753 61.4941 98.9801 62.4023 103.247C64.5263 113.223 67.3144 122.874 70.0879 132.686C77.7148 138.006 86.5576 150.676 73.4863 155.574L72.6611 155.059C72.6758 153.272 73.1201 153.259 74.3262 151.595L73.9697 151.31L74.1992 151.672C73.4228 152.599 73.833 151.212 73.1152 151.482C72.168 151.838 70.459 152.479 69.5752 152.811C68.4473 151.769 67.0117 150.624 65.8154 149.615C68.0371 148.691 70.0146 148.342 70.581 145.83C69.6289 144.043 66.2744 141.875 64.3848 140.344C62.5195 132.597 63.7695 133.056 57.9541 126.537C58.3789 132.713 59.082 140.546 58.3154 146.631C57.1289 147.692 55.581 148.826 54.3017 149.822L53.3301 175.265C53.208 179.377 53.1591 183.503 52.998 187.612C52.6904 195.334 50.2588 202.805 49.4824 210.518C48.4863 220.39 48.0371 230.126 46.0254 239.867C54.8975 247.507 48.8086 249.437 50.3564 252.757L51.9531 252.93C60.8057 253.438 55.2441 253.624 59.3506 257.356C61.2549 259.083 72.1729 259.716 71.5918 263.966C70.2637 265.138 69.9805 265.126 68.2959 265.737C63.0762 267.629 34.8437 266.36 31.5381 264.658C30.5078 263.037 30.6006 261.489 30.4394 259.525C16.1914 259.906 13.8721 256.611 19.4141 242.875C17.9443 238.959 15.6885 234.604 15.0879 230.356C13.8477 221.562 13.877 211.452 13.9795 202.557C13.8916 200.186 15.1025 196.157 15.0341 193.961C14.8779 189.24 14.2627 190.526 16.9922 186.404C15.3955 182.843 12.5635 169.674 12.876 165.919C7.65625 158.618 4.0234 152.005 3.6279 142.988C2.97848 141.748 1.33301 141.204 0 140.553C1.25977 132.689 2.10938 123.678 3.54493 116.361C6.92383 99.1872 8.73046 86.9163 4.1455 69.726C2.50976 63.6051 3.40329 57.854 0.766575 50.2084C6.42087 38.7145 14.0136 35.9129 25.791 33.2838C29.4189 28.8451 23.6475 21.5989 24.9707 17.1485C25.2002 17.0327 26.7822 16.1897 26.8018 16.0242C27.9492 6.03215 31.5674 1.43958 41.7773 0.0534514Z" fill="black"/>
</svg>
