<svg width="80" height="267" viewBox="0 0 80 267" fill="none" xmlns="http://www.w3.org/2000/svg">
<path d="M4.35038 41.8251C8.16386 42.0923 12.4119 43.4086 15.6199 43.1292C18.0174 40.251 14.8142 28.0797 14.5115 23.5408C14.3308 20.5634 14.614 17.5758 15.3464 14.6849C17.8708 4.36025 22.5779 -0.890225 33.5398 0.123726C40.7273 0.788948 44.4285 4.67723 47.8074 10.5055C48.1346 14.9594 47.8855 16.64 46.6648 20.9156C53.6521 36.4159 39.5213 40.7707 39.9412 46.0416C42.9051 48.4764 43.989 48.7338 45.659 52.2689C47.451 52.5307 49.2381 52.8218 51.0154 53.1432C60.8933 55.0153 60.6932 61.3672 62.2752 69.9618C65.3318 86.5543 67.4656 103.289 72.3484 119.495C73.0467 121.807 77.3289 123.206 78.4812 125.375C79.78 127.376 79.4773 133.591 77.4021 134.762L76.1717 134.173L75.5564 134.781C77.3484 141.449 80.6296 148.028 76.8796 154.792C75.5906 157.116 70.8982 161.772 68.1687 159.713C67.3484 155.672 70.6492 156.246 71.9725 152.647C71.4598 152.398 70.6687 152.097 70.2635 151.705C68.9305 150.425 68.7889 136.583 68.6277 133.341C65.908 136.426 64.9119 137.331 61.5037 139.602C62.5779 135.757 63.784 134.094 64.1014 129.997L63.5105 129.592C61.7429 130.719 61.1961 132.37 60.0144 134.346C60.283 145.871 57.6219 154.624 55.3807 165.745C53.5545 174.784 53.0125 183.444 48.9304 191.917C47.5632 194.749 51.4597 196.946 47.5144 202.33C47.5583 202.54 48.0857 204.53 48.1394 204.324C45.6882 213.493 45.1219 244.272 41.201 251.435C46.7576 253.605 49.4871 253.551 55.3904 253.971C57.7292 255.566 59.1941 256.422 58.4519 259.403C54.9168 263.484 33.5301 267.462 28.3836 265.84C27.9978 261.871 28.95 256.341 28.8084 252.119C28.657 247.706 28.1883 243.455 28.032 239.069C27.7098 230.207 28.115 221.514 28.2176 212.711C27.0603 216.438 24.6775 228.082 24.2722 232.567C24.2185 233.152 25.6834 232.741 25.8103 235.231C24.9461 236.056 24.658 236.3 23.9207 237.273C26.0349 242.01 23.5252 242.012 22.8074 246.265C22.28 249.405 25.4978 254.008 23.8962 257.368C21.6013 259.226 13.1101 258.676 10.8054 256.662C8.68142 254.81 11.0008 250.127 10.991 247.664C10.9666 242.672 11.4255 237.647 11.5818 232.657C12.0066 223.347 9.95584 206.659 12.1531 197.927C15.7029 183.818 18.4568 180.15 12.1189 165.634C9.71167 160.115 7.08961 151.322 4.87282 145.232C3.30055 140.914 3.10037 134.693 3.24197 129.956L0.947015 126.441C3.49584 109.977 9.01833 96.768 5.85915 79.1362C4.22341 70.0263 1.39139 61.2602 0.131623 52.1576C-0.537322 47.3574 1.41581 45.372 4.35038 41.8251Z" fill="black"/>
</svg>
