<svg width="112" height="267" viewBox="0 0 112 267" fill="none" xmlns="http://www.w3.org/2000/svg">
<path d="M50.9227 0.101727C55.2713 -0.0750792 58.4412 -0.30756 62.3377 2.13403C66.9295 5.01129 73.1546 12.3585 74.5438 17.6417C75.4446 21.0675 74.5589 24.503 72.7796 27.4379C79.8318 37.0274 81.348 40.459 91.1453 46.8265C92.3524 50.4906 92.8406 52.1058 94.7073 55.4217C92.2376 66.0867 98.8587 75.3495 85.2772 79.4732C89.3431 89.915 94.5105 89.9136 104.258 93.5381C106.455 104.541 106.819 116.413 109.459 127.466C111.419 135.666 113.847 151.843 102.83 154.612C96.6746 156.16 92.7 154.578 87.4588 151.476C86.282 158.29 83.9153 168.053 83.4651 174.554C83.3978 180.244 85.1014 186.603 85.4769 192.181C86.9603 214.233 93.219 235.264 93.4656 257.326C96.492 260.11 98.2864 261.79 100.975 264.979C92.618 267.265 88.2322 268.349 81.827 262C71.555 261.507 74.243 260.706 72.0506 253.155C69.5525 244.549 65.1214 233.989 63.8328 225.144C62.2366 214.189 60.8201 204.123 58.7029 193.27C57.9173 189.29 57.0281 185.329 56.0364 181.397C51.9256 195.683 54.8338 217.921 55.9813 232.578C56.7 241.76 55.6697 246.268 57.9647 255.494C55.0145 258.381 51.8294 261.199 48.7698 263.978C45.7249 264.716 35.9578 265.688 33.7269 263.763C33.6888 261.165 36.0716 258.967 36.2659 257.37C37.011 251.26 35.7542 251.694 38.8069 246.214C37.7357 242.263 35.6004 235.064 35.0941 231.21C33.8104 221.427 33.4983 210.907 31.6238 201.187C29.0247 190.906 28.2244 178.505 25.5887 168.415C22.2606 155.672 20.9173 153.035 22.2313 139.452C14.9334 144.517 4.14825 146.006 0.961242 135.559C-0.646668 130.289 -0.356627 116.75 2.74201 111.798C4.0882 109.644 8.54767 107.443 9.56622 104.463C10.3206 102.256 11.5472 99.0807 10.7239 96.8266C10.2 96.6005 8.72882 96.0046 8.61115 95.4327C6.75617 86.4224 8.6546 82.6782 5.14337 73.9058C5.44562 72.8894 5.88068 71.4862 6.27716 70.5196C10.3694 60.5403 12.9881 47.1694 23.3733 42.0791C27.5159 42.3883 30.5203 42.5221 34.7044 42.508C34.9051 39.6463 34.8152 39.6873 36.0989 37.1627C38.2513 32.9291 41.9017 31.7379 37.1985 28.549C24.2264 19.7536 40.8113 1.80581 50.9227 0.101727Z" fill="black"/>
</svg>
