<svg width="90" height="267" viewBox="0 0 90 267" fill="none" xmlns="http://www.w3.org/2000/svg">
<path d="M45.7739 0.0747084C49.1445 -0.169499 54.6128 0.219307 57.8794 0.743866C69.6523 2.63355 65.3496 14.3018 67.8394 17.7104C69.0107 18.2282 69.3984 18.3195 70.3369 19.2338C70.9839 24.3578 66.9341 33.2455 65.8613 39.399L65.7495 40.0677C66.7153 40.5844 67.6665 41.1295 68.6011 41.7019C77.6074 47.283 77.4097 63.5546 80.4214 72.7417C83.7197 82.8036 86.9692 93.6176 89.3862 103.949C88.2642 108.784 84.6533 113.961 82.1226 118.435C82.9331 122.611 88.4629 133.732 84.8149 135.788C82.5381 135.422 82.7031 135.065 80.7764 133.493C81.7979 144.907 87.5615 253.433 86.4453 256.046C84.1021 258.464 81.1885 258.303 77.8057 258.63L82.4941 264.198C80.2354 264.74 78.3608 265.517 76.1665 266.269C74.5986 265.59 71.0737 263.978 69.5381 263.607C65.207 262.562 55.3433 262.391 51.8028 260.256C50.8672 258.61 51.0947 257.082 51.0874 255.128L43.2305 255.367C39.8042 255.421 36.082 255.694 32.6372 255.88C35.063 258.84 37.5215 261.619 39.3403 264.994C33.0757 265.917 24.4819 266.117 18.8418 262.767C15.876 261.008 15.3477 258.508 13.7315 255.768C9.72706 254.503 2.43164 255.934 0 252.886C0.258789 246.146 1.98633 238.278 2.67285 231.303C4.08838 221.09 3.91357 210.081 5.40674 199.952C8.49658 178.989 11.0576 158.036 13.6099 137C14.0801 133.127 14.8521 125.297 15.9238 121.854C17.7319 116.047 20.8242 110.464 22.7651 104.369C22.2505 102.118 21.4702 96.1989 20.5728 94.6105C19.8696 96.8006 20.6148 101.048 20.8623 103.557C15.8232 89.8631 10.1934 66.6551 19.189 53.9113C22.6274 49.0399 26.1587 44.4976 29.4482 39.3722C29.8857 26.5659 29.9028 2.73951 45.7739 0.0747084Z" fill="black"/>
</svg>
