<svg width="92" height="266" viewBox="0 0 92 266" fill="none" xmlns="http://www.w3.org/2000/svg">
<path d="M17.9573 0C18.0897 0.104085 19.019 1.04879 19.0216 1.04958C19.9033 1.23763 21.3516 0.368398 22.273 0.64119C22.3551 0.668734 22.4398 0.696281 22.5245 0.723825C26.7343 2.62992 31.3942 4.20946 33.8406 8.2722C36.7848 12.8042 36.9119 18.4614 35.0082 23.4672C33.695 26.9251 30.3854 32.3557 32.9034 36.0019C35.837 40.2463 42.0643 38.6816 46.4938 38.8627C49.4936 38.9853 51.4873 39.0076 54.548 39.6999C57.6802 42.3791 61.1195 50.9217 63.9869 55.1953C69.4411 63.366 79.9444 69.3592 83.4393 78.5385C85.057 82.7909 80.9028 88.4051 78.8562 91.9832C76.6957 95.7612 74.4081 99.6115 72.2 103.393C73.7965 107.293 77.3179 115.833 78.2499 119.669C76.0497 120.601 73.5556 121.363 71.3315 122.327C67.6063 123.943 63.8996 125.644 60.2061 127.331C59.3535 126.068 58.8769 125.384 57.8655 124.257C57.9529 127.017 58.3924 140.406 57.7622 142.399L56.7297 142.843C56.4173 144 57.2089 145.791 57.0394 147.474C56.7323 150.49 56.2134 153.636 56.0545 156.645C55.8003 161.465 56.314 166.371 56.5311 171.16C56.7615 176.17 57.847 180.478 57.5769 185.445C62.4857 189.108 70.2963 201.376 72.8698 207.211C74.244 210.324 75.0674 214.289 76.6163 217.374C77.5589 219.247 79.8438 220.523 80.6487 222.557C81.4403 224.53 82.3273 228.662 83.4075 230.27C85.8911 233.893 89.0576 237.153 91.4617 240.829C92.587 242.545 89.3065 247.606 87.8291 248.277C87.5908 248.202 86.8442 247.959 86.7145 248.041C84.6996 250.141 80.9849 254.72 79.6267 257.459C77.2544 262.231 65.8006 266.204 61.7099 262.928C59.1046 257.483 64.6541 254.694 66.3036 251.725C68.1358 248.428 70.3652 241.136 70.2672 237.243C70.1666 233.276 67.8684 232.256 66.5552 229.332C64.8209 225.471 63.4574 221.501 61.5961 217.684C56.6079 207.451 52.0804 203.386 44.238 195.852C41.2885 192.899 39.7608 188.04 37.8492 184.144C37.5738 190.516 40.7007 195.416 41.3653 201.224C41.8419 205.381 41.9345 210.61 42.3423 215.044L45.3368 244.677C45.628 247.76 47.9606 255.16 46.8062 258.121C46.38 259.217 41.2223 260.171 39.9355 259.771C37.9048 259.323 36.7636 259.535 35.0188 260.74C30.6449 263.757 19.906 268.694 15.4711 264.181C11.121 259.755 21.3436 254.41 24.0231 252.337C27.2453 249.844 31.2777 245.006 32.3156 240.98C32.8054 239.264 32.7948 237.002 33.0887 235.225C33.5335 233.744 32.0005 232.606 31.7384 231.205C29.84 220.537 26.0327 210.004 24.3276 199.348C23.4671 193.96 21.3277 192.235 19.906 187.396C19.0852 184.606 19.0031 180.384 18.4021 177.383C15.9795 165.294 14.0758 153.311 14.5497 140.933C14.6 139.659 14.9972 134.03 14.6212 133.159C13.0723 134.249 13.7131 139.009 12.323 140.935C11.2878 141.234 10.2314 140.905 9.13527 140.699C8.97641 145.538 7.9491 147.843 7.59697 152.107C8.36744 152.688 9.60124 153.447 10.4379 153.999L10.7689 156.604C6.48494 156.503 4.78251 156.595 0.924865 154.441C0.588612 153.021 0.535666 151.703 0.337092 150.445C-0.97615 147.906 1.97862 142.773 1.87272 141.573C1.38819 136.104 3.91143 131.755 4.72956 126.488C7.03567 111.665 9.14587 96.7928 8.24301 81.7625C7.89617 75.9462 7.2422 70.0235 7.22367 64.244C7.30045 60.8738 16.0324 50.2903 18.4047 47.3214C17.6052 44.1726 16.9194 42.0494 16.6043 38.7833C15.9556 38.6132 15.3096 38.4331 14.6662 38.243C13.5807 37.9159 12.3522 37.3957 11.8438 36.134C9.36032 29.9901 9.69392 21.4769 9.41856 14.8452C9.40267 14.477 10.4538 11.8413 10.6418 11.2443C9.56418 8.71052 10.6418 8.65226 12.2092 6.84203C11.8332 6.14761 11.7353 5.94924 11.5129 5.19284C12.0583 3.0595 14.8833 1.36925 16.9326 1.08031L17.2583 1.03634L17.9573 0Z" fill="black"/>
</svg>
