<svg width="79" height="249" viewBox="0 0 79 249" fill="none" xmlns="http://www.w3.org/2000/svg">
<path d="M10.7167 45.8402C11.2491 45.4203 12.9894 43.9828 13.5161 43.7819C18.9889 41.6881 28.5634 38.3678 27.2782 30.6707C25.9644 29.3314 23.082 18.4931 23.5457 17.4197C25.9616 11.8345 22.6555 6.21083 28.4747 2.36107C36.5379 -3.39905 47.2888 2.02801 46.0695 11.6435C45.8605 13.1248 45.6859 14.8156 45.4254 16.3884C46.058 16.6678 47.16 16.9638 47.3861 17.6685C48.2277 20.2932 45.517 23.3414 43.7882 25.0307C43.7424 26.4719 43.6537 28.0888 43.6737 29.5157C45.5686 31.6198 47.5064 33.8044 49.5215 35.7811C53.5516 39.7114 59.0416 41.8693 63.5555 45.0994C65.2729 46.3274 67.7116 49.4047 68.5074 51.4349C71.2437 58.4376 76.0668 67.2287 77.8844 74.3703C78.6343 77.2269 78.932 80.1831 78.766 83.1319C77.9731 96.704 68.5159 105.68 58.4634 113.401C59.0531 121.825 60.4069 130.884 60.8592 139.252C61.466 150.484 61.3172 160.705 62.7999 171.967C63.7387 179.097 66.0629 182.383 67.3767 188.928C68.9482 196.754 67.5399 207.278 68.4072 215.032C69.2172 222.254 73.5021 226.613 71.3926 235.321C70.2219 237.42 72.6377 242.391 71.633 244.686C71.2523 245.556 67.1191 247.726 66.0286 248.287C60.0033 248.389 62.2932 248.478 58.0312 245.456C57.433 241.284 59.3507 240.149 59.6456 236.401C59.6456 236.384 59.5683 235.847 59.4881 235.795C57.6963 234.632 57.1639 234.035 55.9445 232.358C54.0812 229.797 53.4772 227.485 52.7445 224.444C48.9805 208.805 48.5883 191.437 44.8587 175.841C44.4093 173.987 44.3721 173.531 44.2776 171.648C44.0343 170.511 43.814 169.556 43.4991 168.438C42.9896 166.157 42.6261 164.421 42.3169 162.112C42.0393 158.261 40.6224 154.221 39.529 150.47C39.3344 153.703 39.7265 158.679 40.4078 161.849L40.7684 164.786C40.9258 165.848 40.9459 166.077 40.9344 167.146C41.1234 168.584 41.2751 169.441 41.2121 170.905C41.3724 172.231 41.4267 172.921 41.8046 174.185C41.9391 175.236 42.0679 176.065 42.0651 177.123L42.0965 177.532C42.3856 181.176 43.2043 185.086 43.7853 188.714C45.205 197.573 46.6133 206.432 47.0026 215.409C47.2459 221.053 50.3372 228.764 44.4036 232.237C41.8189 232.394 38.593 232.469 36.1257 233.146C28.8239 235.15 20.3914 241.308 14.5637 233.164C20.0451 230.993 26.6428 228.208 30.2322 223.254C30.5384 220.82 30.6501 218.568 30.3839 216.125C29.9774 212.419 28.8611 208.775 28.2343 205.094C27.6532 201.661 27.4385 198.181 26.8374 194.753C24.871 183.579 12.8349 120.655 8.63296 114.748C7.50806 113.168 5.7706 112.172 4.64284 110.511C-0.847128 102.422 -0.432086 91.7513 0.709988 82.5048C1.88355 73.0124 3.9387 63.2925 7.13879 54.2661C8.15492 51.3977 9.76928 48.6756 10.7167 45.8402Z" fill="#191819"/>
</svg>
