<svg width="400" height="600" viewBox="0 0 400 600" fill="none" xmlns="http://www.w3.org/2000/svg">
<path d="M52.4004 247.223V247.6H52.7773V250H50V247.223H52.4004ZM63.8887 247.6V250H58.333V247.6H63.8887ZM75 247.6V250H69.4443V247.6H75ZM86.1113 247.6V250H80.5557V247.6H86.1113ZM97.2227 247.6V250H91.667V247.6H97.2227ZM108.333 247.6V250H102.777V247.6H108.333ZM119.444 247.6V250H113.889V247.6H119.444ZM130.556 247.6V250H125V247.6H130.556ZM141.667 247.6V250H136.111V247.6H141.667ZM152.777 247.6V250H147.223V247.6H152.777ZM163.889 247.6V250H158.333V247.6H163.889ZM175 247.6V250H169.444V247.6H175ZM186.111 247.6V250H180.556V247.6H186.111ZM197.223 247.6V250H191.667V247.6H197.223ZM208.333 247.6V250H202.777V247.6H208.333ZM219.444 247.6V250H213.889V247.6H219.444ZM230.556 247.6V250H225V247.6H230.556ZM241.667 247.6V250H236.111V247.6H241.667ZM252.777 247.6V250H247.223V247.6H252.777ZM263.889 247.6V250H258.333V247.6H263.889ZM275 247.6V250H269.444V247.6H275ZM286.111 247.6V250H280.556V247.6H286.111ZM297.223 247.6V250H291.667V247.6H297.223ZM308.333 247.6V250H302.778V247.6H308.333ZM319.444 247.6V250H313.889V247.6H319.444ZM330.556 247.6V250H325V247.6H330.556ZM341.667 247.6V250H336.111V247.6H341.667ZM350 247.223V250H347.223V247.6H347.6V247.223H350ZM52.4004 236.111V241.667H50V236.111H52.4004ZM350 236.111V241.667H347.6V236.111H350ZM52.4004 225V230.556H50V225H52.4004ZM350 225V230.556H347.6V225H350ZM52.4004 213.889V219.444H50V213.889H52.4004ZM350 213.889V219.444H347.6V213.889H350ZM52.4004 202.777V208.333H50V202.777H52.4004ZM350 202.777V208.333H347.6V202.777H350ZM52.4004 191.667V197.223H50V191.667H52.4004ZM350 191.667V197.223H347.6V191.667H350ZM52.4004 180.556V186.111H50V180.556H52.4004ZM350 180.556V186.111H347.6V180.556H350ZM52.4004 169.444V175H50V169.444H52.4004ZM350 169.444V175H347.6V169.444H350ZM52.4004 158.333V163.889H50V158.333H52.4004ZM350 158.333V163.889H347.6V158.333H350ZM52.4004 147.223V152.777H50V147.223H52.4004ZM350 147.223V152.777H347.6V147.223H350ZM52.4004 136.111V141.667H50V136.111H52.4004ZM350 136.111V141.667H347.6V136.111H350ZM52.4004 125V130.556H50V125H52.4004ZM350 125V130.556H347.6V125H350ZM52.4004 113.889V119.444H50V113.889H52.4004ZM350 113.889V119.444H347.6V113.889H350ZM52.4004 102.777V108.333H50V102.777H52.4004ZM350 102.777V108.333H347.6V102.777H350ZM52.4004 91.667V97.2227H50V91.667H52.4004ZM350 91.667V97.2227H347.6V91.667H350ZM52.4004 80.5557V86.1113H50V80.5557H52.4004ZM350 80.5557V86.1113H347.6V80.5557H350ZM52.4004 69.4443V75H50V69.4443H52.4004ZM350 69.4443V75H347.6V69.4443H350ZM52.4004 58.333V63.8887H50V58.333H52.4004ZM350 58.333V63.8887H347.6V58.333H350ZM52.7783 50V52.4004H52.4004V52.7773H50V50H52.7783ZM350 50V52.7773H347.6V52.4004H347.223V50H350ZM63.8887 50V52.4004H58.333V50H63.8887ZM75 50V52.4004H69.4443V50H75ZM86.1113 50V52.4004H80.5557V50H86.1113ZM97.2227 50V52.4004H91.667V50H97.2227ZM108.333 50V52.4004H102.777V50H108.333ZM119.444 50V52.4004H113.889V50H119.444ZM130.556 50V52.4004H125V50H130.556ZM141.667 50V52.4004H136.111V50H141.667ZM152.777 50V52.4004H147.223V50H152.777ZM163.889 50V52.4004H158.333V50H163.889ZM175 50V52.4004H169.444V50H175ZM186.111 50V52.4004H180.556V50H186.111ZM197.223 50V52.4004H191.667V50H197.223ZM208.333 50V52.4004H202.777V50H208.333ZM219.444 50V52.4004H213.889V50H219.444ZM230.556 50V52.4004H225V50H230.556ZM241.667 50V52.4004H236.111V50H241.667ZM252.777 50V52.4004H247.223V50H252.777ZM263.889 50V52.4004H258.333V50H263.889ZM275 50V52.4004H269.444V50H275ZM286.111 50V52.4004H280.556V50H286.111ZM297.223 50V52.4004H291.667V50H297.223ZM308.333 50V52.4004H302.777V50H308.333ZM319.444 50V52.4004H313.889V50H319.444ZM330.556 50V52.4004H325V50H330.556ZM341.667 50V52.4004H336.111V50H341.667Z" fill="#7B8B8A"/>
<path d="M346.833 50.6799L348.853 49.3409L350.858 50.6602L348.837 51.9998L346.833 50.6799ZM338.752 56.0376L342.792 53.3585L344.797 54.6789L340.757 57.3569L338.752 56.0376ZM330.672 61.3942L334.712 58.7157L336.717 60.036L332.677 62.7146L330.672 61.3942ZM322.591 66.7519L326.632 64.0734L328.636 65.3932L324.596 68.0723L322.591 66.7519ZM314.512 72.1091L318.552 69.4305L320.556 70.7504L316.517 73.4295L314.512 72.1091ZM306.431 77.4668L310.471 74.7877L312.476 76.1081L308.435 78.7867L306.431 77.4668ZM298.351 82.824L302.39 80.1454L304.396 81.4652L300.356 84.1438L298.351 82.824ZM290.27 88.1811L294.311 85.5026L296.316 86.8229L292.275 89.5015L290.27 88.1811ZM282.189 93.5388L286.23 90.8603L288.234 92.1801L284.195 94.8587L282.189 93.5388ZM274.11 98.896L278.15 96.2174L280.155 97.5373L276.115 100.216L274.11 98.896ZM266.029 104.254L270.069 101.575L272.074 102.895L268.033 105.574L266.029 104.254ZM257.949 109.611L261.989 106.932L263.994 108.252L259.954 110.931L257.949 109.611ZM249.868 114.968L253.909 112.289L255.914 113.61L251.873 116.288L249.868 114.968ZM241.788 120.325L245.828 117.647L247.833 118.966L243.794 121.646L241.788 120.325ZM233.708 125.683L237.749 123.004L239.753 124.324L235.713 127.003L233.708 125.683ZM225.627 131.041L229.667 128.361L231.672 129.682L227.632 132.36L225.627 131.041ZM217.548 136.398L221.588 133.719L223.593 135.039L219.552 137.718L217.548 136.398ZM209.466 141.755L213.507 139.076L215.512 140.397L211.471 143.075L209.466 141.755ZM201.387 147.112L205.427 144.434L207.432 145.753L203.392 148.432L201.387 147.112ZM193.306 152.47L197.347 149.791L199.351 151.111L195.311 153.79L193.306 152.47ZM185.226 157.827L189.265 155.148L191.271 156.468L187.231 159.147L185.226 157.827ZM177.146 163.185L181.186 160.506L183.191 161.826L179.15 164.505L177.146 163.185ZM169.065 168.541L173.105 165.863L175.11 167.184L171.07 169.862L169.065 168.541ZM160.985 173.899L165.026 171.22L167.03 172.54L162.99 175.219L160.985 173.899ZM152.904 179.257L156.945 176.578L158.949 177.898L154.91 180.577L152.904 179.257ZM144.825 184.614L148.864 181.935L150.87 183.255L146.829 185.934L144.825 184.614ZM136.744 189.972L140.784 187.292L142.789 188.613L138.748 191.291L136.744 189.972ZM128.664 195.328L132.703 192.65L134.709 193.97L130.669 196.649L128.664 195.328ZM120.583 200.686L124.624 198.007L126.628 199.327L122.588 202.006L120.583 200.686ZM112.503 206.043L116.543 203.365L118.548 204.684L114.508 207.363L112.503 206.043ZM104.423 211.401L108.463 208.722L110.468 210.042L106.427 212.721L104.423 211.401ZM96.3423 216.758L100.382 214.079L102.387 215.4L98.3473 218.078L96.3423 216.758ZM88.2618 222.115L92.3024 219.437L94.3075 220.757L90.2668 223.435L88.2618 222.115ZM80.1812 227.473L84.2219 224.794L86.2261 226.114L82.1863 228.793L80.1812 227.473ZM72.1015 232.83L76.1422 230.151L78.1464 231.471L74.1066 234.15L72.1015 232.83ZM64.021 238.188L68.0609 235.509L70.0659 236.829L66.0252 239.508L64.021 238.188ZM55.9413 243.545L59.9803 240.866L61.9862 242.186L57.9455 244.865L55.9413 243.545ZM49.8799 247.563L51.9006 246.223L53.9057 247.544L51.8849 248.883L49.8799 247.563Z" fill="#7B8B8A"/>
<path d="M53.1471 51.4067L51.1329 50.0607L49.1197 51.3747L51.1339 52.7217L53.1471 51.4067ZM61.204 56.793L57.1756 54.0999L55.1632 55.4143L59.1916 58.1074L61.204 56.793ZM69.2617 62.1786L65.2332 59.4855L63.22 60.8005L67.2485 63.4936L69.2617 62.1786ZM77.3185 67.5648L73.2901 64.8717L71.2769 66.1867L75.3061 68.8793L77.3185 67.5648ZM85.3762 72.9505L81.347 70.2579L79.3346 71.5724L83.363 74.2655L85.3762 72.9505ZM93.4331 78.3367L89.4046 75.6436L87.3914 76.9586L91.4199 79.6517L93.4331 78.3367ZM101.491 83.7235L97.4623 81.0304L95.4491 82.3443L99.4775 85.0374L101.491 83.7235ZM109.548 89.1091L105.52 86.416L103.506 87.7305L107.534 90.4236L109.548 89.1091ZM117.605 94.4953L113.577 91.8022L111.563 93.1167L115.592 95.8093L117.605 94.4953ZM125.663 99.881L121.634 97.1884L119.621 98.5024L123.649 101.195L125.663 99.881ZM133.72 105.267L129.691 102.574L127.678 103.889L131.707 106.582L133.72 105.267ZM141.778 110.653L137.748 107.96L135.736 109.275L139.764 111.968L141.778 110.653ZM149.834 116.039L145.806 113.346L143.793 114.661L147.821 117.354L149.834 116.039ZM157.891 121.425L153.863 118.732L151.85 120.047L155.879 122.74L157.891 121.425ZM165.949 126.811L161.92 124.118L159.907 125.433L163.936 128.126L165.949 126.811ZM174.006 132.197L169.977 129.504L167.964 130.819L171.993 133.512L174.006 132.197ZM182.063 137.583L178.034 134.89L176.022 136.205L180.05 138.898L182.063 137.583ZM190.12 142.969L186.092 140.276L184.079 141.591L188.107 144.284L190.12 142.969ZM198.177 148.355L194.149 145.662L192.136 146.977L196.165 149.67L198.177 148.355ZM206.235 153.741L202.206 151.048L200.193 152.363L204.222 155.056L206.235 153.741ZM214.292 159.127L210.263 156.434L208.251 157.749L212.279 160.442L214.292 159.127ZM222.349 164.513L218.321 161.82L216.308 163.135L220.336 165.828L222.349 164.513ZM230.407 169.9L226.378 167.206L224.365 168.521L228.394 171.213L230.407 169.9ZM238.465 175.285L234.435 172.593L232.422 173.907L236.451 176.6L238.465 175.285ZM246.522 180.671L242.493 177.978L240.479 179.293L244.508 181.986L246.522 180.671ZM254.578 186.058L250.55 183.365L248.537 184.678L252.565 187.372L254.578 186.058ZM262.636 191.443L258.608 188.75L256.594 190.065L260.622 192.758L262.636 191.443ZM270.693 196.83L266.665 194.136L264.651 195.451L268.681 198.144L270.693 196.83ZM278.751 202.215L274.721 199.523L272.709 200.837L276.737 203.53L278.751 202.215ZM286.808 207.601L282.779 204.908L280.766 206.223L284.794 208.916L286.808 207.601ZM294.864 212.988L290.836 210.295L288.824 211.609L292.852 214.302L294.864 212.988ZM302.922 218.373L298.894 215.68L296.88 216.995L300.909 219.688L302.922 218.373ZM310.979 223.759L306.951 221.066L304.938 222.381L308.967 225.074L310.979 223.759ZM319.037 229.145L315.008 226.452L312.995 227.767L317.023 230.46L319.037 229.145ZM327.093 234.531L323.065 231.838L321.052 233.153L325.081 235.846L327.093 234.531ZM335.151 239.917L331.122 237.224L329.11 238.539L333.138 241.232L335.151 239.917ZM343.209 245.304L339.18 242.61L337.166 243.925L341.195 246.618L343.209 245.304ZM349.251 249.343L347.237 247.997L345.224 249.311L347.238 250.658L349.251 249.343Z" fill="#7B8B8A"/>
<path d="M52.4004 497.223V497.6H52.7773V500H50V497.223H52.4004ZM63.8887 497.6V500H58.333V497.6H63.8887ZM75 497.6V500H69.4443V497.6H75ZM86.1113 497.6V500H80.5557V497.6H86.1113ZM97.2227 497.6V500H91.667V497.6H97.2227ZM108.333 497.6V500H102.777V497.6H108.333ZM119.444 497.6V500H113.889V497.6H119.444ZM130.556 497.6V500H125V497.6H130.556ZM141.667 497.6V500H136.111V497.6H141.667ZM152.777 497.6V500H147.223V497.6H152.777ZM163.889 497.6V500H158.333V497.6H163.889ZM175 497.6V500H169.444V497.6H175ZM186.111 497.6V500H180.556V497.6H186.111ZM197.223 497.6V500H191.667V497.6H197.223ZM208.333 497.6V500H202.777V497.6H208.333ZM219.444 497.6V500H213.889V497.6H219.444ZM230.556 497.6V500H225V497.6H230.556ZM241.667 497.6V500H236.111V497.6H241.667ZM252.777 497.6V500H247.223V497.6H252.777ZM263.889 497.6V500H258.333V497.6H263.889ZM275 497.6V500H269.444V497.6H275ZM286.111 497.6V500H280.556V497.6H286.111ZM297.223 497.6V500H291.667V497.6H297.223ZM308.333 497.6V500H302.778V497.6H308.333ZM319.444 497.6V500H313.889V497.6H319.444ZM330.556 497.6V500H325V497.6H330.556ZM341.667 497.6V500H336.111V497.6H341.667ZM350 497.223V500H347.223V497.6H347.6V497.223H350ZM52.4004 486.111V491.667H50V486.111H52.4004ZM350 486.111V491.667H347.6V486.111H350ZM52.4004 475V480.556H50V475H52.4004ZM350 475V480.556H347.6V475H350ZM52.4004 463.889V469.444H50V463.889H52.4004ZM350 463.889V469.444H347.6V463.889H350ZM52.4004 452.777V458.333H50V452.777H52.4004ZM350 452.777V458.333H347.6V452.777H350ZM52.4004 441.667V447.223H50V441.667H52.4004ZM350 441.667V447.223H347.6V441.667H350ZM52.4004 430.556V436.111H50V430.556H52.4004ZM350 430.556V436.111H347.6V430.556H350ZM52.4004 419.444V425H50V419.444H52.4004ZM350 419.444V425H347.6V419.444H350ZM52.4004 408.333V413.889H50V408.333H52.4004ZM350 408.333V413.889H347.6V408.333H350ZM52.4004 397.223V402.777H50V397.223H52.4004ZM350 397.223V402.777H347.6V397.223H350ZM52.4004 386.111V391.667H50V386.111H52.4004ZM350 386.111V391.667H347.6V386.111H350ZM52.4004 375V380.556H50V375H52.4004ZM350 375V380.556H347.6V375H350ZM52.4004 363.889V369.444H50V363.889H52.4004ZM350 363.889V369.444H347.6V363.889H350ZM52.4004 352.777V358.333H50V352.777H52.4004ZM350 352.777V358.333H347.6V352.777H350ZM52.4004 341.667V347.223H50V341.667H52.4004ZM350 341.667V347.223H347.6V341.667H350ZM52.4004 330.556V336.111H50V330.556H52.4004ZM350 330.556V336.111H347.6V330.556H350ZM52.4004 319.444V325H50V319.444H52.4004ZM350 319.444V325H347.6V319.444H350ZM52.4004 308.333V313.889H50V308.333H52.4004ZM350 308.333V313.889H347.6V308.333H350ZM52.7783 300V302.4H52.4004V302.777H50V300H52.7783ZM350 300V302.777H347.6V302.4H347.223V300H350ZM63.8887 300V302.4H58.333V300H63.8887ZM75 300V302.4H69.4443V300H75ZM86.1113 300V302.4H80.5557V300H86.1113ZM97.2227 300V302.4H91.667V300H97.2227ZM108.333 300V302.4H102.777V300H108.333ZM119.444 300V302.4H113.889V300H119.444ZM130.556 300V302.4H125V300H130.556ZM141.667 300V302.4H136.111V300H141.667ZM152.777 300V302.4H147.223V300H152.777ZM163.889 300V302.4H158.333V300H163.889ZM175 300V302.4H169.444V300H175ZM186.111 300V302.4H180.556V300H186.111ZM197.223 300V302.4H191.667V300H197.223ZM208.333 300V302.4H202.777V300H208.333ZM219.444 300V302.4H213.889V300H219.444ZM230.556 300V302.4H225V300H230.556ZM241.667 300V302.4H236.111V300H241.667ZM252.777 300V302.4H247.223V300H252.777ZM263.889 300V302.4H258.333V300H263.889ZM275 300V302.4H269.444V300H275ZM286.111 300V302.4H280.556V300H286.111ZM297.223 300V302.4H291.667V300H297.223ZM308.333 300V302.4H302.777V300H308.333ZM319.444 300V302.4H313.889V300H319.444ZM330.556 300V302.4H325V300H330.556ZM341.667 300V302.4H336.111V300H341.667Z" fill="#7B8B8A"/>
<path d="M346.833 300.68L348.853 299.341L350.858 300.66L348.837 302L346.833 300.68ZM338.752 306.038L342.792 303.358L344.797 304.679L340.757 307.357L338.752 306.038ZM330.672 311.394L334.712 308.716L336.717 310.036L332.677 312.715L330.672 311.394ZM322.591 316.752L326.632 314.073L328.636 315.393L324.596 318.072L322.591 316.752ZM314.512 322.109L318.552 319.431L320.556 320.75L316.517 323.429L314.512 322.109ZM306.431 327.467L310.471 324.788L312.476 326.108L308.435 328.787L306.431 327.467ZM298.351 332.824L302.39 330.145L304.396 331.465L300.356 334.144L298.351 332.824ZM290.27 338.181L294.311 335.503L296.316 336.823L292.275 339.502L290.27 338.181ZM282.189 343.539L286.23 340.86L288.234 342.18L284.195 344.859L282.189 343.539ZM274.11 348.896L278.15 346.217L280.155 347.537L276.115 350.216L274.11 348.896ZM266.029 354.254L270.069 351.575L272.074 352.895L268.033 355.574L266.029 354.254ZM257.949 359.611L261.989 356.932L263.994 358.252L259.954 360.931L257.949 359.611ZM249.868 364.968L253.909 362.289L255.914 363.61L251.873 366.288L249.868 364.968ZM241.788 370.325L245.828 367.647L247.833 368.966L243.794 371.646L241.788 370.325ZM233.708 375.683L237.749 373.004L239.753 374.324L235.713 377.003L233.708 375.683ZM225.627 381.041L229.667 378.361L231.672 379.682L227.632 382.36L225.627 381.041ZM217.548 386.398L221.588 383.719L223.593 385.039L219.552 387.718L217.548 386.398ZM209.466 391.755L213.507 389.076L215.512 390.397L211.471 393.075L209.466 391.755ZM201.387 397.112L205.427 394.434L207.432 395.753L203.392 398.432L201.387 397.112ZM193.306 402.47L197.347 399.791L199.351 401.111L195.311 403.79L193.306 402.47ZM185.226 407.827L189.265 405.148L191.271 406.468L187.231 409.147L185.226 407.827ZM177.146 413.185L181.186 410.506L183.191 411.826L179.15 414.505L177.146 413.185ZM169.065 418.541L173.105 415.863L175.11 417.184L171.07 419.862L169.065 418.541ZM160.985 423.899L165.026 421.22L167.03 422.54L162.99 425.219L160.985 423.899ZM152.904 429.257L156.945 426.578L158.949 427.898L154.91 430.577L152.904 429.257ZM144.825 434.614L148.864 431.935L150.87 433.255L146.829 435.934L144.825 434.614ZM136.744 439.972L140.784 437.292L142.789 438.613L138.748 441.291L136.744 439.972ZM128.664 445.328L132.703 442.65L134.709 443.97L130.669 446.649L128.664 445.328ZM120.583 450.686L124.624 448.007L126.628 449.327L122.588 452.006L120.583 450.686ZM112.503 456.043L116.543 453.365L118.548 454.684L114.508 457.363L112.503 456.043ZM104.423 461.401L108.463 458.722L110.468 460.042L106.427 462.721L104.423 461.401ZM96.3423 466.758L100.382 464.079L102.387 465.4L98.3473 468.078L96.3423 466.758ZM88.2618 472.115L92.3024 469.437L94.3075 470.757L90.2668 473.435L88.2618 472.115ZM80.1812 477.473L84.2219 474.794L86.2261 476.114L82.1863 478.793L80.1812 477.473ZM72.1015 482.83L76.1422 480.151L78.1464 481.471L74.1066 484.15L72.1015 482.83ZM64.021 488.188L68.0609 485.509L70.0659 486.829L66.0252 489.508L64.021 488.188ZM55.9413 493.545L59.9803 490.866L61.9862 492.186L57.9455 494.865L55.9413 493.545ZM49.8799 497.563L51.9006 496.223L53.9057 497.544L51.8849 498.883L49.8799 497.563Z" fill="#7B8B8A"/>
<path d="M53.1471 301.407L51.1329 300.061L49.1197 301.375L51.1339 302.722L53.1471 301.407ZM61.204 306.793L57.1756 304.1L55.1632 305.414L59.1916 308.107L61.204 306.793ZM69.2617 312.179L65.2332 309.486L63.22 310.801L67.2485 313.494L69.2617 312.179ZM77.3185 317.565L73.2901 314.872L71.2769 316.187L75.3061 318.879L77.3185 317.565ZM85.3762 322.951L81.347 320.258L79.3346 321.572L83.363 324.266L85.3762 322.951ZM93.4331 328.337L89.4046 325.644L87.3914 326.959L91.4199 329.652L93.4331 328.337ZM101.491 333.723L97.4623 331.03L95.4491 332.344L99.4775 335.037L101.491 333.723ZM109.548 339.109L105.52 336.416L103.506 337.73L107.534 340.424L109.548 339.109ZM117.605 344.495L113.577 341.802L111.563 343.117L115.592 345.809L117.605 344.495ZM125.663 349.881L121.634 347.188L119.621 348.502L123.649 351.195L125.663 349.881ZM133.72 355.267L129.691 352.574L127.678 353.889L131.707 356.582L133.72 355.267ZM141.778 360.653L137.748 357.96L135.736 359.275L139.764 361.968L141.778 360.653ZM149.834 366.039L145.806 363.346L143.793 364.661L147.821 367.354L149.834 366.039ZM157.891 371.425L153.863 368.732L151.85 370.047L155.879 372.74L157.891 371.425ZM165.949 376.811L161.92 374.118L159.907 375.433L163.936 378.126L165.949 376.811ZM174.006 382.197L169.977 379.504L167.964 380.819L171.993 383.512L174.006 382.197ZM182.063 387.583L178.034 384.89L176.022 386.205L180.05 388.898L182.063 387.583ZM190.12 392.969L186.092 390.276L184.079 391.591L188.107 394.284L190.12 392.969ZM198.177 398.355L194.149 395.662L192.136 396.977L196.165 399.67L198.177 398.355ZM206.235 403.741L202.206 401.048L200.193 402.363L204.222 405.056L206.235 403.741ZM214.292 409.127L210.263 406.434L208.251 407.749L212.279 410.442L214.292 409.127ZM222.349 414.513L218.321 411.82L216.308 413.135L220.336 415.828L222.349 414.513ZM230.407 419.9L226.378 417.206L224.365 418.521L228.394 421.213L230.407 419.9ZM238.465 425.285L234.435 422.593L232.422 423.907L236.451 426.6L238.465 425.285ZM246.522 430.671L242.493 427.978L240.479 429.293L244.508 431.986L246.522 430.671ZM254.578 436.058L250.55 433.365L248.537 434.678L252.565 437.372L254.578 436.058ZM262.636 441.443L258.608 438.75L256.594 440.065L260.622 442.758L262.636 441.443ZM270.693 446.83L266.665 444.136L264.651 445.451L268.681 448.144L270.693 446.83ZM278.751 452.215L274.721 449.523L272.709 450.837L276.737 453.53L278.751 452.215ZM286.808 457.601L282.779 454.908L280.766 456.223L284.794 458.916L286.808 457.601ZM294.864 462.988L290.836 460.295L288.824 461.609L292.852 464.302L294.864 462.988ZM302.922 468.373L298.894 465.68L296.88 466.995L300.909 469.688L302.922 468.373ZM310.979 473.759L306.951 471.066L304.938 472.381L308.967 475.074L310.979 473.759ZM319.037 479.145L315.008 476.452L312.995 477.767L317.023 480.46L319.037 479.145ZM327.093 484.531L323.065 481.838L321.052 483.153L325.081 485.846L327.093 484.531ZM335.151 489.917L331.122 487.224L329.11 488.539L333.138 491.232L335.151 489.917ZM343.209 495.304L339.18 492.61L337.166 493.925L341.195 496.618L343.209 495.304ZM349.251 499.343L347.237 497.997L345.224 499.311L347.238 500.658L349.251 499.343Z" fill="#7B8B8A"/>
<rect x="50" y="550" width="100" height="11" fill="#7B8B8A"/>
<rect x="300" y="550" width="50" height="11" fill="#7B8B8A"/>
<rect x="50" y="50" width="20" height="20" fill="#7B8B8A"/>
<rect x="330" y="50" width="20" height="20" fill="#7B8B8A"/>
<rect x="50" y="230" width="20" height="20" fill="#7B8B8A"/>
<rect x="330" y="230" width="20" height="20" fill="#7B8B8A"/>
<rect x="50" y="300" width="20" height="20" fill="#7B8B8A"/>
<rect x="330" y="300" width="20" height="20" fill="#7B8B8A"/>
<rect x="50" y="480" width="20" height="20" fill="#7B8B8A"/>
<rect x="330" y="480" width="20" height="20" fill="#7B8B8A"/>
</svg>
