<svg width="600" height="200" viewBox="0 0 600 200" fill="none" xmlns="http://www.w3.org/2000/svg">
<rect x="520" y="170.668" width="60" height="9.33333" fill="#7B8B8A"/>
<rect x="20" y="170.668" width="60" height="9.33333" fill="#7B8B8A"/>
<path d="M529.715 71.7185C531.278 70.1564 533.811 70.1564 535.373 71.7185L560.828 97.1745C562.39 98.7366 562.39 101.269 560.828 102.831L535.373 128.287C533.811 129.849 531.278 129.849 529.715 128.287C528.153 126.725 528.153 124.192 529.715 122.63L548.342 104.003L338.119 103.204C335.91 103.204 334.119 101.414 334.119 99.2044C334.119 96.9953 335.91 95.2044 338.119 95.2044L548.342 96.0026L529.715 77.3757C528.153 75.8136 528.153 73.2806 529.715 71.7185Z" fill="#7B8B8A"/>
<rect x="120" y="65.332" width="160" height="18.6667" fill="#7B8B8A"/>
<rect x="120" y="90.666" width="160" height="18.6667" fill="#7B8B8A"/>
<rect x="120" y="116" width="104.282" height="18.6667" fill="#7B8B8A"/>
<circle cx="60.6673" cy="100.001" r="39.3333" fill="#7B8B8A"/>
</svg>
