<svg width="600" height="200" viewBox="0 0 600 200" fill="none" xmlns="http://www.w3.org/2000/svg">
<rect x="520" y="170.668" width="60" height="9.33333" fill="#7B8B8A"/>
<rect x="20" y="170.668" width="60" height="9.33333" fill="#7B8B8A"/>
<circle cx="342.667" cy="100.001" r="39.3333" fill="#7B8B8A"/>
<rect x="402" y="65.3359" width="160" height="18.6667" fill="#7B8B8A"/>
<rect x="402" y="90.6699" width="160" height="18.6667" fill="#7B8B8A"/>
<rect x="402" y="116.002" width="104.282" height="18.6667" fill="#7B8B8A"/>
<path d="M213.618 71.7165C212.056 70.1544 209.523 70.1544 207.961 71.7165L182.506 97.1725C180.944 98.7346 180.944 101.267 182.506 102.829L207.961 128.285C209.523 129.847 212.056 129.847 213.618 128.285C215.18 126.723 215.18 124.19 213.618 122.628L194.991 104.001L245.334 104.001C247.543 104.001 249.334 102.21 249.334 100.001C249.334 97.7915 247.543 96.0007 245.334 96.0007L194.991 96.0007L213.618 77.3737C215.18 75.8116 215.18 73.2786 213.618 71.7165Z" fill="#7B8B8A"/>
<path d="M133.618 71.7165C132.056 70.1544 129.523 70.1544 127.961 71.7165L102.506 97.1725C100.944 98.7346 100.944 101.267 102.506 102.829L127.961 128.285C129.523 129.847 132.056 129.847 133.618 128.285C135.18 126.723 135.18 124.19 133.618 122.628L114.991 104.001L165.334 104.001C167.543 104.001 169.334 102.21 169.334 100.001C169.334 97.7915 167.543 96.0007 165.334 96.0007L114.991 96.0007L133.618 77.3737C135.18 75.8116 135.18 73.2786 133.618 71.7165Z" fill="#7B8B8A"/>
<path d="M53.6182 71.7165C52.0561 70.1544 49.523 70.1544 47.9609 71.7165L22.5059 97.1725C20.9438 98.7346 20.9438 101.267 22.5059 102.829L47.9609 128.285C49.523 129.847 52.0561 129.847 53.6182 128.285C55.1803 126.723 55.1803 124.19 53.6182 122.628L34.9912 104.001L85.334 104.001C87.5431 104.001 89.334 102.21 89.334 100.001C89.334 97.7915 87.5431 96.0007 85.334 96.0007L34.9912 96.0007L53.6182 77.3737C55.1803 75.8116 55.1803 73.2786 53.6182 71.7165Z" fill="#7B8B8A"/>
</svg>
