<svg width="400" height="600" viewBox="0 0 400 600" fill="none" xmlns="http://www.w3.org/2000/svg">
<rect x="50" y="550" width="100" height="11" fill="#7B8B8A"/>
<rect x="300" y="550" width="50" height="11" fill="#7B8B8A"/>
<rect x="174" y="300" width="132" height="38.4" fill="#7B8B8A"/>
<rect x="174" y="468.4" width="176" height="12" fill="#7B8B8A"/>
<rect x="174" y="449.201" width="176" height="11.2" fill="#7B8B8A"/>
<rect x="174" y="488.4" width="88" height="11.2" fill="#7B8B8A"/>
<path d="M54.125 497V500H51V497H54.125ZM66.625 497V500H60.375V497H66.625ZM79.125 497V500H72.875V497H79.125ZM91.625 497V500H85.375V497H91.625ZM104.125 497V500H97.875V497H104.125ZM116.625 497V500H110.375V497H116.625ZM129.125 497V500H122.875V497H129.125ZM141.625 497V500H135.375V497H141.625ZM151 497V500H147.875V497H151ZM54 485.294V491.177H51V485.294H54ZM151 485.294V491.177H148V485.294H151ZM54 473.529V479.412H51V473.529H54ZM151 473.529V479.412H148V473.529H151ZM54 461.765V467.647H51V461.765H54ZM151 461.765V467.647H148V461.765H151ZM54 450V455.883H51V450H54ZM151 450V455.883H148V450H151ZM54 438.235V444.118H51V438.235H54ZM151 438.235V444.117H148V438.235H151ZM54 426.471V432.353H51V426.471H54ZM151 426.471V432.353H148V426.471H151ZM54 414.706V420.588H51V414.706H54ZM151 414.706V420.588H148V414.706H151ZM54 402.941V408.823H51V402.941H54ZM151 402.941V408.823H148V402.941H151ZM54 391.177V397.059H51V391.177H54ZM151 391.177V397.059H148V391.177H151ZM54 379.412V385.294H51V379.412H54ZM151 379.412V385.294H148V379.412H151ZM54 367.647V373.529H51V367.647H54ZM151 367.647V373.529H148V367.647H151ZM54 355.883V361.765H51V355.883H54ZM151 355.883V361.765H148V355.883H151ZM54 344.117V350H51V344.117H54ZM151 344.117V350H148V344.117H151ZM54 332.353V338.235H51V332.353H54ZM151 332.353V338.235H148V332.353H151ZM54 320.588V326.471H51V320.588H54ZM151 320.588V326.471H148V320.588H151ZM54 308.823V314.706H51V308.823H54ZM151 308.823V314.706H148V308.823H151ZM54.125 300V303H51V300H54.125ZM66.625 300V303H60.375V300H66.625ZM79.125 300V303H72.875V300H79.125ZM91.625 300V303H85.375V300H91.625ZM104.125 300V303H97.875V300H104.125ZM116.625 300V303H110.375V300H116.625ZM129.125 300V303H122.875V300H129.125ZM141.625 300V303H135.375V300H141.625ZM151 300V303H147.875V300H151Z" fill="#7B8B8A"/>
<path d="M137 300H151V314H137V300Z" fill="#7B8B8A"/>
<path d="M51 300H65V314H51V300Z" fill="#7B8B8A"/>
<path d="M137 486H151V500H137V486Z" fill="#7B8B8A"/>
<path d="M51 486H65V500H51V486Z" fill="#7B8B8A"/>
<path d="M61.228 309.771L60.0048 307.012L62.7477 305.797L63.9709 308.555L61.228 309.771ZM66.1168 320.806L63.6722 315.288L66.4151 314.072L68.8597 319.591L66.1168 320.806ZM71.0066 331.841L68.562 326.323L71.3049 325.107L73.7495 330.625L71.0066 331.841ZM75.8963 342.876L73.4508 337.358L76.1937 336.143L78.6392 341.66L75.8963 342.876ZM80.7861 353.911L78.3409 348.394L81.0839 347.179L83.529 352.695L80.7861 353.911ZM85.6749 364.946L83.2307 359.429L85.9736 358.213L88.4179 363.731L85.6749 364.946ZM90.5647 375.981L88.1204 370.464L90.8634 369.248L93.3076 374.766L90.5647 375.981ZM95.4544 387.016L93.0093 381.499L95.7522 380.284L98.1974 385.801L95.4544 387.016ZM100.344 398.051L97.899 392.534L100.642 391.319L103.086 396.836L100.344 398.051ZM105.233 409.087L102.789 403.569L105.532 402.354L107.976 407.871L105.233 409.087ZM110.123 420.122L107.679 414.604L110.421 413.388L112.866 418.907L110.123 420.122ZM115.013 431.157L112.567 425.639L115.31 424.424L117.756 429.942L115.013 431.157ZM119.903 442.192L117.457 436.674L120.2 435.459L122.645 440.977L119.903 442.192ZM124.792 453.227L122.347 447.709L125.09 446.494L127.534 452.012L124.792 453.227ZM129.681 464.262L127.237 458.744L129.98 457.529L132.424 463.047L129.681 464.262ZM134.571 475.297L132.126 469.78L134.868 468.564L137.314 474.082L134.571 475.297ZM139.461 486.332L137.016 480.815L139.759 479.6L142.203 485.117L139.461 486.332ZM143.127 494.608L141.905 491.85L144.648 490.635L145.87 493.393L143.127 494.608Z" fill="#7B8B8A"/>
<path d="M142.793 309.801C143.195 308.874 143.6 307.942 144.007 307.003L141.254 305.811C140.848 306.749 140.443 307.681 140.041 308.606L142.793 309.801ZM137.969 320.853C138.766 319.036 139.572 317.196 140.385 315.332L137.636 314.132C136.823 315.994 136.018 317.831 135.222 319.646L137.969 320.853ZM133.08 331.925C133.889 330.104 134.705 328.26 135.529 326.393L132.785 325.181C131.961 327.047 131.146 328.889 130.338 330.708L133.08 331.925ZM128.152 342.962C128.967 341.145 129.791 339.307 130.622 337.447L127.882 336.224C127.052 338.083 126.229 339.918 125.415 341.733L128.152 342.962ZM123.181 353.972C124.005 352.158 124.835 350.324 125.672 348.47L122.938 347.235C122.101 349.087 121.272 350.919 120.449 352.732L123.181 353.972ZM118.168 364.963C118.999 363.149 119.836 361.318 120.679 359.47L117.95 358.225C117.108 360.072 116.272 361.9 115.441 363.713L118.168 364.963ZM113.118 375.938C113.956 374.122 114.8 372.295 115.647 370.453L112.921 369.198C112.074 371.038 111.232 372.866 110.394 374.68L113.118 375.938ZM108.041 386.899C108.885 385.08 109.732 383.255 110.582 381.42L107.86 380.159C107.011 381.993 106.164 383.818 105.32 385.635L108.041 386.899ZM102.948 397.85C103.796 396.027 104.645 394.203 105.495 392.375L102.775 391.11C101.925 392.938 101.076 394.762 100.228 396.584L102.948 397.85ZM97.8527 408.797C98.7028 406.969 99.5522 405.146 100.4 403.323L97.6805 402.057C96.8322 403.88 95.9836 405.704 95.1333 407.532L97.8527 408.797ZM92.7681 419.748C93.6178 417.914 94.4646 416.09 95.3086 414.272L92.5876 413.008C91.7432 414.827 90.8963 416.652 90.0463 418.487L92.7681 419.748ZM87.7063 430.709C88.5533 428.868 89.3962 427.041 90.2343 425.227L87.5109 423.969C86.6722 425.785 85.829 427.612 84.9814 429.454L87.7063 430.709ZM82.6784 441.682C83.5207 439.835 84.357 438.007 85.1877 436.194L82.4608 434.944C81.6293 436.758 80.7924 438.589 79.9492 440.437L82.6784 441.682ZM77.6909 452.672C78.5273 450.82 79.3568 448.988 80.1795 447.175L77.4475 445.935C76.6239 447.749 75.7937 449.583 74.9565 451.437L77.6909 452.672ZM72.7469 463.683C73.5766 461.824 74.3982 459.988 75.213 458.174L72.4768 456.945C71.6611 458.762 70.8377 460.6 70.007 462.46L72.7469 463.683ZM67.8431 474.725C68.6666 472.86 69.4823 471.019 70.2899 469.2L67.5482 467.982C66.7397 469.803 65.924 471.647 65.0995 473.514L67.8431 474.725ZM62.9927 485.775C63.8055 483.913 64.6102 482.076 65.4069 480.261L62.6601 479.055C61.8625 480.871 61.0569 482.711 60.2431 484.575L62.9927 485.775ZM59.3749 494.096C59.781 493.158 60.1854 492.226 60.5874 491.301L57.8355 490.106C57.4332 491.033 57.0284 491.965 56.6219 492.904L59.3749 494.096Z" fill="#7B8B8A"/>
<rect x="174" y="50" width="132" height="38.4" fill="#7B8B8A"/>
<rect x="174" y="218.4" width="176" height="12" fill="#7B8B8A"/>
<rect x="174" y="199.201" width="176" height="11.2" fill="#7B8B8A"/>
<rect x="174" y="238.4" width="88" height="11.2" fill="#7B8B8A"/>
<path d="M54.125 247V250H51V247H54.125ZM66.625 247V250H60.375V247H66.625ZM79.125 247V250H72.875V247H79.125ZM91.625 247V250H85.375V247H91.625ZM104.125 247V250H97.875V247H104.125ZM116.625 247V250H110.375V247H116.625ZM129.125 247V250H122.875V247H129.125ZM141.625 247V250H135.375V247H141.625ZM151 247V250H147.875V247H151ZM54 235.294V241.177H51V235.294H54ZM151 235.294V241.177H148V235.294H151ZM54 223.529V229.412H51V223.529H54ZM151 223.529V229.412H148V223.529H151ZM54 211.765V217.647H51V211.765H54ZM151 211.765V217.647H148V211.765H151ZM54 200V205.883H51V200H54ZM151 200V205.883H148V200H151ZM54 188.235V194.118H51V188.235H54ZM151 188.235V194.117H148V188.235H151ZM54 176.471V182.353H51V176.471H54ZM151 176.471V182.353H148V176.471H151ZM54 164.706V170.588H51V164.706H54ZM151 164.706V170.588H148V164.706H151ZM54 152.941V158.823H51V152.941H54ZM151 152.941V158.823H148V152.941H151ZM54 141.177V147.059H51V141.177H54ZM151 141.177V147.059H148V141.177H151ZM54 129.412V135.294H51V129.412H54ZM151 129.412V135.294H148V129.412H151ZM54 117.647V123.529H51V117.647H54ZM151 117.647V123.529H148V117.647H151ZM54 105.883V111.765H51V105.883H54ZM151 105.883V111.765H148V105.883H151ZM54 94.1172V100H51V94.1172H54ZM151 94.1172V100H148V94.1172H151ZM54 82.3525V88.2354H51V82.3525H54ZM151 82.3525V88.2354H148V82.3525H151ZM54 70.5879V76.4707H51V70.5879H54ZM151 70.5879V76.4707H148V70.5879H151ZM54 58.8232V64.7061H51V58.8232H54ZM151 58.8232V64.7061H148V58.8232H151ZM54.125 50V53H51V50H54.125ZM66.625 50V53H60.375V50H66.625ZM79.125 50V53H72.875V50H79.125ZM91.625 50V53H85.375V50H91.625ZM104.125 50V53H97.875V50H104.125ZM116.625 50V53H110.375V50H116.625ZM129.125 50V53H122.875V50H129.125ZM141.625 50V53H135.375V50H141.625ZM151 50V53H147.875V50H151Z" fill="#7B8B8A"/>
<path d="M137 50H151V64H137V50Z" fill="#7B8B8A"/>
<path d="M51 50H65V64H51V50Z" fill="#7B8B8A"/>
<path d="M137 236H151V250H137V236Z" fill="#7B8B8A"/>
<path d="M51 236H65V250H51V236Z" fill="#7B8B8A"/>
<path d="M61.228 59.7705L60.0048 57.0119L62.7477 55.7965L63.9709 58.5552L61.228 59.7705ZM66.1168 70.8059L63.6722 65.2878L66.4151 64.0724L68.8597 69.5905L66.1168 70.8059ZM71.0066 81.8408L68.562 76.3227L71.3049 75.1074L73.7495 80.6255L71.0066 81.8408ZM75.8963 92.8757L73.4508 87.358L76.1937 86.1427L78.6392 91.6604L75.8963 92.8757ZM80.7861 103.911L78.3409 98.3938L81.0839 97.1785L83.529 102.695L80.7861 103.911ZM85.6749 114.946L83.2307 109.429L85.9736 108.213L88.4179 113.731L85.6749 114.946ZM90.5647 125.981L88.1204 120.464L90.8634 119.248L93.3076 124.766L90.5647 125.981ZM95.4544 137.016L93.0093 131.499L95.7522 130.284L98.1974 135.801L95.4544 137.016ZM100.344 148.051L97.899 142.534L100.642 141.319L103.086 146.836L100.344 148.051ZM105.233 159.087L102.789 153.569L105.532 152.354L107.976 157.871L105.233 159.087ZM110.123 170.122L107.679 164.604L110.421 163.388L112.866 168.907L110.123 170.122ZM115.013 181.157L112.567 175.639L115.31 174.424L117.756 179.942L115.013 181.157ZM119.903 192.192L117.457 186.674L120.2 185.459L122.645 190.977L119.903 192.192ZM124.792 203.227L122.347 197.709L125.09 196.494L127.534 202.012L124.792 203.227ZM129.681 214.262L127.237 208.744L129.98 207.529L132.424 213.047L129.681 214.262ZM134.571 225.297L132.126 219.78L134.868 218.564L137.314 224.082L134.571 225.297ZM139.461 236.332L137.016 230.815L139.759 229.6L142.203 235.117L139.461 236.332ZM143.127 244.608L141.905 241.85L144.648 240.635L145.87 243.393L143.127 244.608Z" fill="#7B8B8A"/>
<path d="M142.793 59.8011C143.195 58.8744 143.6 57.9419 144.007 57.0031L141.254 55.8111C140.848 56.749 140.443 57.6806 140.041 58.6063L142.793 59.8011ZM137.969 70.8525C138.766 69.0358 139.572 67.196 140.385 65.332L137.636 64.1319C136.823 65.9939 136.018 67.8314 135.222 69.6461L137.969 70.8525ZM133.08 81.9254C133.889 80.1045 134.705 78.2604 135.529 76.3931L132.785 75.1813C131.961 77.0468 131.146 78.8893 130.338 80.7083L133.08 81.9254ZM128.152 92.9616C128.967 91.1451 129.791 89.3073 130.622 87.4469L127.882 86.2244C127.052 88.0827 126.229 89.9183 125.415 91.7328L128.152 92.9616ZM123.181 103.972C124.005 102.158 124.835 100.324 125.672 98.4698L122.938 97.2348C122.101 99.0872 121.272 100.919 120.449 102.732L123.181 103.972ZM118.168 114.963C118.999 113.149 119.836 111.318 120.679 109.47L117.95 108.225C117.108 110.072 116.272 111.9 115.441 113.713L118.168 114.963ZM113.118 125.938C113.956 124.122 114.8 122.295 115.647 120.453L112.921 119.198C112.074 121.038 111.232 122.866 110.394 124.68L113.118 125.938ZM108.041 136.899C108.885 135.08 109.732 133.255 110.582 131.42L107.86 130.159C107.011 131.993 106.164 133.818 105.32 135.635L108.041 136.899ZM102.948 147.85C103.796 146.027 104.645 144.203 105.495 142.375L102.775 141.11C101.925 142.938 101.076 144.762 100.228 146.584L102.948 147.85ZM97.8527 158.797C98.7028 156.969 99.5522 155.146 100.4 153.323L97.6805 152.057C96.8322 153.88 95.9836 155.704 95.1333 157.532L97.8527 158.797ZM92.7681 169.748C93.6178 167.914 94.4646 166.09 95.3086 164.272L92.5876 163.008C91.7432 164.827 90.8963 166.652 90.0463 168.487L92.7681 169.748ZM87.7063 180.709C88.5533 178.868 89.3962 177.041 90.2343 175.227L87.5109 173.969C86.6722 175.785 85.829 177.612 84.9814 179.454L87.7063 180.709ZM82.6784 191.682C83.5207 189.835 84.357 188.007 85.1877 186.194L82.4608 184.944C81.6293 186.758 80.7924 188.589 79.9492 190.437L82.6784 191.682ZM77.6909 202.672C78.5273 200.82 79.3568 198.988 80.1795 197.175L77.4475 195.935C76.6239 197.749 75.7937 199.583 74.9565 201.437L77.6909 202.672ZM72.7469 213.683C73.5766 211.824 74.3982 209.988 75.213 208.174L72.4768 206.945C71.6611 208.762 70.8377 210.6 70.007 212.46L72.7469 213.683ZM67.8431 224.725C68.6666 222.86 69.4823 221.019 70.2899 219.2L67.5482 217.982C66.7397 219.803 65.924 221.647 65.0995 223.514L67.8431 224.725ZM62.9927 235.775C63.8055 233.913 64.6102 232.076 65.4069 230.261L62.6601 229.055C61.8625 230.871 61.0569 232.711 60.2431 234.575L62.9927 235.775ZM59.3749 244.096C59.781 243.158 60.1854 242.226 60.5874 241.301L57.8355 240.106C57.4332 241.033 57.0284 241.965 56.6219 242.904L59.3749 244.096Z" fill="#7B8B8A"/>
</svg>
